<svg width="108" height="97" viewBox="0 0 108 97" fill="none" xmlns="http://www.w3.org/2000/svg">
<g clip-path="url(#clip0_184_452)">
<path d="M108 22.736L92.2359 92.3054L26.5308 70.279L41.6942 0L108 22.736Z" fill="#217288"/>
<path d="M41.6942 0L14.6078 6.34589L0 74.6768L26.5307 70.279L41.6942 0Z" fill="#45A8B9"/>
<path d="M92.2359 92.3052L68.0147 96.9998L0 74.6766L26.5307 70.2788L92.2359 92.3052Z" fill="#154856"/>
<path d="M80.3881 13.2684L64.5219 83.0152L56.8096 80.4291L72.3424 10.5083L80.3881 13.2684Z" fill="#75CBD9"/>
<path d="M31.0684 2.49072L15.2923 72.142L9.95557 73.0256L24.7736 3.96461L31.0684 2.49072Z" fill="#75CBD9"/>
<path d="M56.8091 80.4292L29.0801 84.2197L39.0088 87.4813L64.5215 83.0153L56.8091 80.4292Z" fill="#589BAB"/>
</g>
<defs>
<clipPath id="clip0_184_452">
<rect width="108" height="97" fill="white"/>
</clipPath>
</defs>
</svg>
