<svg width="86" height="82" viewBox="0 0 86 82" fill="none" xmlns="http://www.w3.org/2000/svg">
<g clip-path="url(#clip0_153_70)">
<path d="M57.5171 37.2979L41.6429 52.3825L24.3721 36.4708L41.0921 22.2134L57.5171 37.2979Z" fill="#51A3BC"/>
<path d="M45 25.0002L30.5685 43.2778L32.8839 44.9023L47.5 26.5002L45 25.0002Z" fill="white" fill-opacity="0.3"/>
<path d="M48.8606 28.9025L34.6205 46.1207L35 47L49.9319 29.2222L48.8606 28.9025Z" fill="white" fill-opacity="0.3"/>
<path d="M68.3553 36.0572L57.5168 37.2978L41.0918 22.2133L41.6426 13.7061L68.3553 36.0572Z" fill="#4891B4"/>
<path d="M40.541 60.5941L16.9756 38.3809L24.3717 36.4707L41.6426 52.3823L40.541 60.5941Z" fill="#4891B4"/>
<path d="M40.541 60.5941L41.6426 52.3823L57.5168 37.2978L68.3553 36.0571L40.541 60.5941Z" fill="#3F7EAC"/>
<path d="M41.0918 22.2133L24.3717 36.4707L16.9756 38.3809L41.6426 13.7061L41.0918 22.2133Z" fill="#5AB5C4"/>
<path d="M44.1016 82L22.0508 60.8797L0 39.7593L16.9758 38.3809L40.5412 60.5941L44.1016 82Z" fill="url(#paint0_linear_153_70)"/>
<path d="M68.3553 36.0572L41.6426 13.7061L41.918 0L85.9999 37.2978L68.3553 36.0572Z" fill="#5AB5C4"/>
<path d="M85.9998 37.2978L44.1014 82L40.541 60.5941L68.3553 36.0571L85.9998 37.2978Z" fill="#2D5A9C"/>
<path d="M41.6427 13.7061L16.9758 38.3809L0 39.7594L41.9181 0L41.6427 13.7061Z" fill="url(#paint1_linear_153_70)"/>
</g>
<defs>
<linearGradient id="paint0_linear_153_70" x1="16.5" y1="40" x2="29.5" y2="78" gradientUnits="userSpaceOnUse">
<stop stop-color="#366CA4"/>
<stop offset="1" stop-color="#092C51"/>
</linearGradient>
<linearGradient id="paint1_linear_153_70" x1="20.9591" y1="0" x2="20.9591" y2="39.7594" gradientUnits="userSpaceOnUse">
<stop stop-color="#63C7CC"/>
<stop offset="1" stop-color="#63C7CC" stop-opacity="0.776471"/>
</linearGradient>
<clipPath id="clip0_153_70">
<rect width="86" height="82" fill="white"/>
</clipPath>
</defs>
</svg>
