<svg width="118" height="49" viewBox="0 0 118 49" fill="none" xmlns="http://www.w3.org/2000/svg">
<g clip-path="url(#clip0_46_77)">
<path d="M23.0003 23.9057C23.2939 23.6558 21.6395 23.0438 21.4705 22.9416C20.1297 22.1336 18.09 19.7993 18.1315 18.1735C18.1473 17.5515 18.6372 16.4014 18.8492 15.7568C20.1183 11.896 21.7469 6.88511 23.3613 3.22314C24.1176 1.50787 24.8839 1.53485 26.6501 1.38008C27.2373 1.32896 28.1125 1.49367 28.621 1.34884C28.8674 1.27927 29.5722 0.617583 29.9804 0.428734C31.1621 -0.119355 31.917 -0.137814 33.1116 0.363417C33.6416 0.584925 34.3693 1.26365 34.6944 1.346C36.0051 1.67826 38.1866 1.02084 39.3082 2.16104C40.6847 4.57064 41.3394 7.419 42.3163 10.0231C42.6858 10.0629 42.544 10.0231 42.6056 9.81582C44.3689 3.80672 48.9769 0.587765 55.4041 1.09894C57.1903 1.24093 60.5765 1.82877 60.1998 4.21282L62.7309 2.54157C65.8449 0.752475 72.02 0.48695 75.1555 2.22635C75.475 2.40384 76.2241 3.1067 76.2241 3.4347V6.48043C76.4734 6.51451 76.5392 6.49037 76.7197 6.33418C76.9747 6.11267 77.4588 5.21954 77.794 4.84752C80.6746 1.63993 85.0735 0.604804 89.2733 1.27927C90.8003 1.52491 92.7913 2.05596 92.9704 3.85216C93.0391 4.53798 92.8543 6.87091 92.5621 7.43036C91.8244 8.8446 90.054 8.25959 88.9539 9.52474C87.4241 11.284 87.2508 16.5391 89.6701 17.6041C90.7229 18.067 92.2814 17.5757 92.7541 19.0836C93.1293 20.282 93.2654 23.1148 92.247 24.0491H105.194C107.345 24.0491 110.045 26.7739 110.603 28.7533C110.784 29.3937 111.054 32.1015 110.777 32.553C110.572 32.8867 109.048 33.1934 108.986 33.4759C109.473 34.237 110.065 34.9044 110.398 35.7578C111.117 37.5937 111.08 43.6184 110.384 45.4828C109.598 47.5928 107.667 48.6222 105.485 48.8494L61.426 48.8324L60.3545 48.476C58.3592 46.826 56.9053 44.4959 55.1262 42.6032C54.6464 42.3306 54.0118 42.5194 53.4732 42.4697V46.224C53.4732 46.7408 52.7456 47.8555 52.3302 48.209C50.8519 49.4671 48.9583 48.8608 47.2566 48.8395C44.9877 48.8125 41.8078 49.1206 39.6806 48.8324C38.9773 48.7372 38.2282 48.263 37.8171 47.7021C37.7354 47.5914 37.3071 46.8416 37.3071 46.7905V42.6103H31.7995C31.7838 42.6103 31.5847 42.8077 31.5847 42.8233V46.9325C31.5847 47.4536 30.3371 48.6932 29.7283 48.7784L6.04779 48.8423C2.81342 48.5214 0.558815 45.5666 0.123364 42.5251C0.656218 37.8905 -1.32766 29.8935 1.89525 26.1733C2.6315 25.3242 4.78727 23.9085 5.90311 23.9085H23.0003V23.9057ZM29.7254 17.9548H20.9978L25.2921 4.07083L25.8637 5.91104C26.8606 5.9437 25.4139 3.79252 25.5772 3.64485C27.2531 3.78542 31.2309 4.34203 31.4515 6.39808C31.7709 9.37849 31.1005 12.748 31.3054 15.7639C30.9745 17.4635 31.1879 19.4642 30.8671 21.1397C30.6794 22.1194 28.6139 22.7598 27.7716 23.0395C27.5482 23.1134 27.3634 22.9146 27.4364 23.3377H35.8776C35.9435 22.943 35.796 23.0992 35.5639 23.0182C34.3879 22.6079 33.0558 22.3779 32.447 21.1397C32.3295 17.9761 31.9428 14.8054 31.8654 11.656C31.8382 10.5343 31.6964 6.38672 32.0975 5.63984C32.7779 4.37185 36.3761 3.71585 37.7369 3.64627L32.6504 17.9491C32.4742 19.2654 34.6128 21.2405 35.7788 21.6665C38.9515 22.8251 42.1415 21.3853 43.2874 18.2757L38.3155 3.99273C38.2439 3.81666 38.1222 3.59657 37.9603 3.49434C37.4361 3.15924 34.5813 3.39921 33.7161 3.16066C33.2162 3.02293 32.9999 1.93527 31.6549 1.93527C30.3371 1.93527 30.0792 3.01725 29.479 3.19332C28.7485 3.4063 26.6902 3.28135 25.7863 3.36371C25.6159 3.37933 25.2821 3.41766 25.1775 3.53978L20.018 18.0656C20.6196 20.6654 23.2295 22.2856 25.9138 22.0484C28.1269 21.8525 30.3557 20.1472 30.6665 17.9562C29.1038 14.1949 28.0524 10.2304 26.5655 6.44493C26.524 6.33844 26.3292 6.3356 26.3192 6.31572C26.249 6.17941 26.6973 5.82585 26.1473 5.91388L29.724 17.9562L29.7254 17.9548ZM58.1959 6.47901C58.2603 5.9508 58.5526 4.00551 58.1987 3.71443C57.6774 3.28419 54.4602 2.90365 53.6838 2.93205C40.9612 3.40205 41.0056 22.1649 52.6912 23.1957C53.5835 23.2738 57.9724 23.2028 58.4165 22.4914C58.6056 22.1876 58.1586 20.4524 58.3391 19.9384C56.4297 20.4155 54.8727 20.9764 52.8688 20.6101C45.5807 19.2782 44.9533 8.41294 51.5782 5.94512C53.8514 5.09885 56.0759 5.42117 58.1959 6.47759V6.47901ZM74.6499 22.3466V12.1459H67.9262V14.5541H71.7894C72.1074 15.1945 71.7966 15.7213 71.7837 16.3191C71.7536 17.6339 71.8138 18.9544 71.7966 20.2693C65.7289 22.3381 60.641 17.5672 61.8141 11.4047C62.7968 6.24472 67.6297 4.52094 72.3939 5.9508C72.6846 6.03884 74.1099 6.7417 74.2216 6.61958C74.1844 6.13823 74.5969 4.15886 74.2775 3.91322C74.1199 3.79252 73.4925 3.61645 73.2533 3.54262C65.3006 1.10604 57.643 5.98062 58.7889 14.608C59.8761 22.8024 67.634 24.6213 74.6528 22.3466H74.6499ZM91.0782 3.80956C91.0022 3.68745 89.7847 3.33957 89.534 3.28561C81.8707 1.61863 75.7256 6.9916 76.8128 14.75C77.8112 21.8823 84.5134 24.725 91.038 22.4943C91.1841 21.648 91.1297 20.7691 90.9593 19.9384C90.8389 19.8319 89.4337 20.3971 89.1301 20.4638C77.0062 23.0722 76.5564 4.49822 87.7392 5.48933C88.941 5.59582 89.842 6.16947 90.9593 6.47759C90.773 5.9011 91.3245 4.2043 91.0782 3.80956ZM22.572 26.5964H6.33283C6.27267 26.5964 5.33588 26.9727 5.2041 27.0366C3.44941 27.8772 3.06982 29.5669 2.96525 31.3375C2.78477 34.3975 2.76615 38.7836 2.96525 41.835C3.05979 43.2862 3.69435 44.9943 5.10956 45.6631C5.27572 45.7412 6.40446 46.1501 6.47751 46.1501H22.5018C22.5176 46.1501 22.7167 45.9528 22.7167 45.9372V42.2539C22.7167 42.207 22.5276 42.0395 22.5734 41.9003H8.76506C8.70203 41.9003 7.78386 41.3423 7.68932 41.2259C7.39854 40.8751 7.29684 40.2972 7.25817 39.85C7.12352 38.2795 7.04044 33.9445 7.27106 32.4863C7.34984 31.9864 8.12907 30.8477 8.62182 30.8477H22.7138V26.9514C22.7138 26.9046 22.5247 26.737 22.5706 26.5979L22.572 26.5964ZM44.3188 46.1487V29.7842C44.3188 29.7146 43.8031 28.6553 43.7257 28.5289C43.0153 27.3561 41.7562 26.7072 40.3882 26.5908C37.3157 26.3281 31.8898 26.3678 28.7886 26.5908C27.1872 26.7058 25.8851 27.3234 25.1188 28.7661C25.0429 28.9081 24.7163 29.5768 24.7163 29.6422V46.1487H28.866V39.9153H40.0258V45.9372C40.0258 45.9528 40.2249 46.1501 40.2407 46.1501H44.3188V46.1487ZM62.8455 26.7384H46.6779C46.6622 26.7384 46.4631 26.9358 46.4631 26.9514V45.7952C46.4631 45.842 46.6521 46.0096 46.6063 46.1487H50.3979C50.4136 46.1487 50.6127 45.9514 50.6127 45.9357V39.8429C50.6127 39.8272 50.8118 39.6299 50.8276 39.6299H55.4056C55.9241 39.6299 56.8265 40.3157 57.1975 40.6891C58.7502 42.2525 60.0222 44.3724 61.6308 45.9329C62.7409 46.0777 63.8725 45.9911 64.9898 46.0067C65.5527 46.0138 66.1285 46.1984 66.7803 46.0067L66.5568 45.3067L61.9158 39.8414C61.7826 39.5021 62.5547 39.6554 62.8097 39.5972C64.4841 39.2209 65.875 37.7385 66.0641 36.019C66.1987 34.795 66.2016 30.4757 65.8449 29.4334C65.4381 28.245 64.1189 26.933 62.844 26.737L62.8455 26.7384ZM103.837 32.4053C104.037 32.4337 104.219 32.3925 104.412 32.3386C105.107 32.1441 106.862 31.3929 107.557 31.0592C108.38 30.6631 108.167 30.1831 107.909 29.4334C107.33 27.7466 105.696 26.72 103.907 26.7242C100.383 26.7342 96.5184 26.6348 93.0276 26.7313C90.7329 26.7938 88.8837 28.1186 88.6645 30.4856C88.3953 33.3907 88.2921 38.0807 92.1754 38.4968C95.4341 38.8461 99.2658 38.2071 102.588 38.528C104.369 38.9838 104.334 41.6021 102.469 41.8861C99.8932 41.7243 96.994 42.1332 94.4586 41.9017C93.8413 41.8449 93.4645 41.6249 93.1236 41.0966C93.0076 40.9163 92.9761 40.5145 92.9503 40.4918C92.7412 40.3114 88.8149 41.8662 88.6918 42.0565C88.5557 42.2681 88.8479 43.2464 88.9539 43.5261C89.481 44.929 90.816 45.8804 92.3143 46.0081C96.2405 46.3418 100.644 45.7497 104.622 46.0011C106.618 45.7227 107.976 44.2332 108.134 42.2539C108.356 39.4581 108.558 34.7894 104.768 34.3847C101.602 34.0467 97.7832 34.7397 94.6248 34.3705C92.2799 34.095 92.4131 31.2012 94.3225 30.9854C95.9827 30.7994 100.839 30.7795 102.464 30.9982C103.258 31.1047 103.871 31.5647 103.838 32.4025L103.837 32.4053ZM83.7342 26.8804H67.7099C67.6942 26.8804 67.495 27.0778 67.495 27.0934V45.7952C67.495 45.8108 67.6942 46.0081 67.7099 46.0081H83.591C83.6626 46.0081 84.7555 45.5595 84.9088 45.4714C86.0232 44.8268 86.7222 43.6752 86.8167 42.4016C87.1161 38.3505 86.609 33.9104 86.7766 29.8196C86.556 28.519 85.0248 27.0962 83.7342 26.8818V26.8804Z" fill="#141227"/>
<path d="M114.28 26.7384C114.564 26.7625 115.005 26.6305 115.213 26.8776C115.372 27.0664 115.81 28.59 115.96 28.9776C116.018 29.1267 115.919 29.3837 116.21 29.29C116.347 29.246 117.045 26.8307 117.161 26.7583C117.318 26.6603 117.775 26.7782 118 26.7384V30.1391C118 30.1675 117.427 30.1675 117.427 30.1391V27.7309L116.545 29.902C116.396 30.2541 115.912 30.2399 115.724 29.9133L114.852 27.8729V30.1405C114.852 30.1689 114.279 30.1689 114.279 30.1405V26.7398L114.28 26.7384Z" fill="#141227"/>
<path d="M113.851 26.7383C114.303 27.6712 112.563 27.1998 112.563 27.3048V30.139C112.563 30.1674 111.99 30.1674 111.99 30.139V27.3048C111.99 27.1998 110.249 27.6712 110.702 26.7383H113.849H113.851Z" fill="#141227"/>
<path d="M103.836 32.4056C103.871 31.5678 103.256 31.1078 102.463 31.0013C100.835 30.7841 95.9795 30.8025 94.3208 30.9885C92.4114 31.2029 92.2782 34.0981 94.6231 34.3736C97.7815 34.7442 101.602 34.0499 104.766 34.3878C108.556 34.7925 108.356 39.4612 108.132 42.257C107.975 44.2378 106.617 45.7273 104.62 46.0042C100.642 45.7528 96.2388 46.3449 92.3126 46.0113C90.8157 45.8835 89.4793 44.9321 88.9522 43.5292C88.8462 43.2495 88.5554 42.2698 88.69 42.0596C88.8132 41.8679 92.7395 40.3145 92.9486 40.4949C92.9744 40.5176 93.0059 40.9194 93.1219 41.0998C93.4628 41.628 93.8395 41.8481 94.4569 41.9049C96.9908 42.1363 99.8914 41.726 102.467 41.8892C104.332 41.6038 104.369 38.9855 102.586 38.5311C99.2641 38.2102 95.4324 38.8492 92.1737 38.4999C88.2904 38.0824 88.3935 33.3939 88.6628 30.4887C88.882 28.1203 90.7312 26.7969 93.0259 26.7344C96.5167 26.6379 100.381 26.7373 103.905 26.7273C105.694 26.7217 107.328 27.7497 107.907 29.4365C108.165 30.1863 108.378 30.6676 107.555 31.0624C106.86 31.396 105.105 32.1472 104.411 32.3417C104.219 32.3957 104.037 32.4368 103.835 32.4084L103.836 32.4056Z" fill="#C9172F"/>
<path d="M62.8453 26.7383C64.1187 26.9342 65.438 28.2462 65.8462 29.4347C66.2043 30.4769 66.2 34.7949 66.0654 36.0203C65.8763 37.7398 64.4854 39.2222 62.8109 39.5985C62.5545 39.6553 61.7825 39.5034 61.9171 39.8427L66.5581 45.308L66.7816 46.008C66.1298 46.2011 65.554 46.0165 64.9911 46.008C63.8752 45.9938 62.7422 46.079 61.6321 45.9342C60.0235 44.3723 58.7515 42.2537 57.1988 40.6904C56.8278 40.317 55.9254 39.6311 55.4069 39.6311H50.8289C50.8131 39.6311 50.614 39.8285 50.614 39.8441V45.937C50.614 45.9526 50.4149 46.15 50.3992 46.15H46.6076C46.6534 46.0108 46.4644 45.8433 46.4644 45.7964V26.9527C46.4644 26.9371 46.6635 26.7397 46.6792 26.7397H62.8468L62.8453 26.7383ZM59.9848 30.8475H50.8289C50.8131 30.8475 50.614 31.0449 50.614 31.0605V35.1698C50.614 35.4225 51.1798 35.512 51.3918 35.5318C53.317 35.7221 57.3248 35.6937 59.2743 35.529C60.9187 35.3899 62.0389 34.3632 61.7639 32.6281C61.6507 31.9139 60.6552 30.9838 59.9848 30.8489V30.8475Z" fill="#C9172F"/>
<path d="M44.3188 46.149H40.2407C40.2249 46.149 40.0258 45.9516 40.0258 45.936V39.9141H28.866V46.1475H24.7163V29.641C24.7163 29.5757 25.0429 28.9069 25.1188 28.7649C25.8851 27.3208 27.1872 26.7046 28.7886 26.5896C31.8898 26.3666 37.3157 26.3283 40.3882 26.5896C41.7562 26.706 43.0153 27.3549 43.7257 28.5278C43.8031 28.6541 44.3188 29.7134 44.3188 29.783V46.1475V46.149ZM28.866 32.4766C28.7356 33.2021 28.866 34.6277 28.866 35.4513C28.866 35.4669 29.0651 35.6643 29.0808 35.6643H39.811C39.8267 35.6643 40.0258 35.4669 40.0258 35.4513V32.1926C40.0258 32.1415 39.503 31.4003 39.4472 31.3491C39.291 31.2043 38.5963 30.8905 38.3714 30.855C37.3172 30.6917 31.2466 30.7073 30.3227 30.943C29.6996 31.1021 28.9763 31.8575 28.866 32.4751V32.4766Z" fill="#C9172F"/>
<path d="M83.7343 26.8803C85.0249 27.0947 86.5561 28.5175 86.7767 29.8181C86.6091 33.9089 87.1162 38.349 86.8168 42.4C86.7223 43.6737 86.0233 44.8253 84.9089 45.4699C84.757 45.5579 83.6627 46.0066 83.591 46.0066H67.71C67.6942 46.0066 67.4951 45.8093 67.4951 45.7937V27.0919C67.4951 27.0763 67.6942 26.8789 67.71 26.8789H83.7343V26.8803ZM71.6448 41.8988H81.0156C81.8292 41.8988 82.5941 40.7501 82.6686 39.9933C82.9035 37.6007 82.5038 34.8006 82.6313 32.3655C82.5167 31.8657 81.5155 30.9896 81.0156 30.9896H71.788V41.6872C71.788 41.7171 71.5732 41.8491 71.6448 41.9002V41.8988Z" fill="#C9172F"/>
<path d="M22.5718 26.5966C22.526 26.7358 22.7151 26.9033 22.7151 26.9502V30.8465H8.62165C8.12891 30.8465 7.34968 31.9852 7.2709 32.485C7.04028 33.9433 7.12193 38.2783 7.25801 39.8487C7.29668 40.296 7.39838 40.8739 7.68916 41.2246C7.78513 41.3397 8.70187 41.8991 8.76489 41.8991H22.5718C22.526 42.0383 22.7151 42.2058 22.7151 42.2527V45.9359C22.7151 45.9516 22.516 46.1489 22.5002 46.1489H6.47591C6.40286 46.1489 5.27413 45.7414 5.10797 45.6619C3.69275 44.9945 3.0582 43.2849 2.96366 41.8338C2.76599 38.7824 2.78318 34.3977 2.96366 31.3363C3.06822 29.5657 3.44781 27.876 5.20251 27.0354C5.33572 26.9715 6.27108 26.5952 6.33124 26.5952H22.5704L22.5718 26.5966Z" fill="#C9172F"/>
<path d="M74.6498 22.3466C67.6311 24.6213 59.8732 22.8024 58.786 14.608C57.6415 5.98062 65.2977 1.10461 73.2504 3.54262C73.491 3.61645 74.117 3.79252 74.2745 3.91321C74.5954 4.15886 74.1829 6.13823 74.2187 6.61958C74.1055 6.74169 72.6817 6.03883 72.3909 5.9508C67.6268 4.51952 62.7938 6.2433 61.8112 11.4047C60.6381 17.5686 65.726 22.3381 71.7936 20.2693C71.8108 18.9544 71.7521 17.6339 71.7807 16.319C71.7936 15.7213 72.1059 15.1931 71.7865 14.5541H67.9233V12.1459H74.647V22.3466H74.6498Z" fill="#F8F8F8"/>
<path d="M29.725 17.955L26.1483 5.9127C26.6998 5.82324 26.25 6.1768 26.3202 6.31453C26.3302 6.33441 26.525 6.33583 26.5666 6.44375C28.0534 10.2278 29.1048 14.1937 30.6675 17.955C30.3567 20.1474 28.1293 21.8527 25.9148 22.0472C23.2305 22.2844 20.6192 20.6642 20.019 18.0644L25.1786 3.53859C25.2831 3.41648 25.6169 3.37814 25.7873 3.36252C26.6912 3.27875 28.7481 3.40512 29.4801 3.19213C30.0802 3.01748 30.3381 1.9355 31.6559 1.93408C33.0009 1.93408 33.2172 3.02174 33.7171 3.15947C34.5823 3.39944 37.4356 3.15947 37.9613 3.49315C38.1218 3.59681 38.245 3.81548 38.3166 3.99155L43.2884 18.2745C42.1425 21.3841 38.9526 22.8239 35.7798 21.6653C34.6138 21.2393 32.4752 19.2642 32.6514 17.9479L37.7379 3.64508C36.3771 3.71608 32.7789 4.37066 32.0985 5.63865C31.6974 6.38553 31.8392 10.5331 31.8665 11.6549C31.9438 14.8042 32.3291 17.9749 32.448 21.1385C33.0568 22.3767 34.3889 22.6081 35.5649 23.017C35.797 23.098 35.9459 22.9432 35.8786 23.3365H27.4375C27.3658 22.912 27.5506 23.1122 27.7726 23.0383C28.6135 22.7572 30.6804 22.1182 30.8681 21.1385C31.1889 19.463 30.9755 17.4637 31.3064 15.7627C31.1016 12.7468 31.7719 9.3773 31.4525 6.39689C31.2319 4.34085 27.2541 3.78424 25.5782 3.64367C25.4149 3.79134 26.8616 5.94251 25.8647 5.90986L25.2932 4.06964L20.9988 17.9536H29.7264L29.725 17.955ZM31.4038 2.82011C30.5658 2.9905 30.6317 4.27695 31.2534 4.46722C32.9092 4.97555 33.031 2.48927 31.4038 2.82011ZM42.3144 17.955L37.9513 4.21021L33.5882 17.955H42.3158H42.3144Z" fill="#F8F8F8"/>
<path d="M58.1957 6.47916C56.0757 5.42132 53.8512 5.10042 51.578 5.94669C44.9531 8.41451 45.5791 19.2797 52.8686 20.6116C54.8739 20.978 56.4295 20.4171 58.3389 19.94C58.1584 20.454 58.6053 22.1892 58.4163 22.493C57.9737 23.203 53.5833 23.2754 52.691 23.1973C41.0054 22.1664 40.961 3.40504 53.6836 2.93362C54.46 2.90522 57.6771 3.28576 58.1985 3.716C58.5523 4.00708 58.2601 5.95379 58.1957 6.48058V6.47916Z" fill="#F8F8F8"/>
<path d="M91.0781 3.80966C91.3245 4.20439 90.773 5.9012 90.9592 6.47768C89.8405 6.16956 88.941 5.59591 87.7392 5.48942C76.5564 4.49832 77.0062 23.0723 89.13 20.4639C89.4351 20.3986 90.8403 19.8334 90.9592 19.9385C91.1297 20.7692 91.1841 21.6481 91.038 22.4944C84.5134 24.7251 77.8112 21.8824 76.8128 14.7501C75.727 6.99169 81.872 1.61872 89.534 3.28571C89.7846 3.34108 91.0022 3.68754 91.0781 3.80966Z" fill="#F8F8F8"/>
<path d="M59.9846 30.8476C60.6535 30.9825 61.6504 31.914 61.7636 32.6268C62.0386 34.3619 60.9199 35.3885 59.2741 35.5277C57.3246 35.6938 53.3167 35.7222 51.3916 35.5305C51.1796 35.5092 50.6138 35.4212 50.6138 35.1684V31.0592C50.6138 31.0436 50.8129 30.8462 50.8286 30.8462H59.9846V30.8476Z" fill="#141227"/>
<path d="M28.866 32.4763C28.9763 31.8587 29.6997 31.1033 30.3228 30.9442C31.2467 30.7085 37.3172 30.6929 38.3715 30.8562C38.5964 30.8917 39.2896 31.2055 39.4472 31.3503C39.5031 31.4014 40.0259 32.1426 40.0259 32.1938V35.4525C40.0259 35.4681 39.8268 35.6655 39.811 35.6655H29.0809C29.0651 35.6655 28.866 35.4681 28.866 35.4525C28.866 34.6289 28.7357 33.2033 28.866 32.4777V32.4763Z" fill="#141227"/>
<path d="M71.6445 41.8989C71.5729 41.8478 71.7877 41.7158 71.7877 41.686V30.9883H81.0153C81.5152 30.9883 82.5164 31.8644 82.631 32.3642C82.505 34.8008 82.9032 37.5994 82.6683 39.992C82.5938 40.7488 81.8289 41.8975 81.0153 41.8975H71.6445V41.8989Z" fill="#141227"/>
<path d="M42.3146 17.9548H33.5869L37.9515 4.20996L42.3146 17.9548Z" fill="#141227"/>
<path d="M31.4043 2.81999C33.0315 2.48915 32.9083 4.97543 31.2539 4.4671C30.6322 4.27683 30.5663 2.99038 31.4043 2.81999Z" fill="#141227"/>
</g>
<defs>
<clipPath id="clip0_46_77">
<rect width="118" height="49" fill="white"/>
</clipPath>
</defs>
</svg>
