<svg width="154" height="61" viewBox="0 0 154 61" fill="none" xmlns="http://www.w3.org/2000/svg">
<g clip-path="url(#clip0_46_68)">
<path d="M46.6092 0V19.0229C52.5074 12.4359 63.639 11.7257 70.9758 16.3064C77.3258 20.2708 79.5678 27.4589 78.6848 34.6216C78.4692 35.1771 78.2575 36.2918 78.1715 36.9044C76.6058 42.0989 72.8726 46.2788 67.7175 48.1938C60.6489 50.819 51.5372 49.4075 46.4821 43.6258L46.2242 48.1913H38.6538C38.7257 46.3524 38.7282 44.5097 38.777 42.6696C38.8591 39.5777 38.958 36.4643 38.9105 33.3534C38.8938 32.2717 38.9734 31.1252 38.9105 30.0561V0H46.6092ZM57.361 18.6805C43.2045 19.8878 42.8644 42.2688 56.8258 44.1166C63.8123 45.0411 69.518 40.889 70.5677 34.0167C71.8857 25.3803 66.7049 17.884 57.361 18.6805Z" fill="#0A68F5"/>
<path d="M38.9118 30.0564C38.9747 31.1255 38.8952 32.2719 38.9118 33.3537H7.86289C8.1542 37.1988 9.83665 40.7942 13.294 42.7598C17.656 45.2404 25.0942 45.0198 28.4578 40.9641C29.1226 40.1626 29.4229 39.2622 29.9953 38.4264H37.7581C36.8431 44.7243 30.8127 48.0545 24.9543 49.0425C15.355 50.6607 3.8576 48.1408 0.843054 37.8202C0.474737 36.5597 0.315604 35.2661 0.0371203 33.9878C0.119254 32.542 -0.0745297 30.9809 0.0371203 29.5491C0.81482 19.5976 7.90909 13.9859 17.6804 13.4443C29.4255 12.7938 38.1842 17.7638 38.9131 30.0564H38.9118ZM30.6998 28.2809C30.6806 21.2944 25.1122 18.1366 18.5685 18.5095C12.8525 18.8354 8.5392 22.536 8.11827 28.2809H30.6998Z" fill="#F02D2E"/>
<path d="M154 14.7109V14.8378L130.135 60.9999H121.539L128.245 48.4068L128.318 48.0314C123.645 39.2149 118.812 30.4784 114.099 21.686C113.53 20.627 112.833 19.5237 112.302 18.5155C112.265 18.4458 112.29 18.2162 112.202 18.0488C111.623 16.9455 110.975 15.8637 110.505 14.7109H119.422L132.638 40.7063L145.723 14.8365L154 14.7109Z" fill="#93C723"/>
<path d="M78.6862 34.6218C81.353 27.7431 92.2665 27.2917 98.5035 27.1344C101.345 27.0621 104.2 27.1978 107.041 27.1407C107.136 23.501 105.942 20.4802 102.288 19.2196C98.0325 17.7511 89.4906 17.9946 88.6937 23.7166H80.61C81.4967 14.521 92.4128 13.0727 99.9254 13.4379C104.352 13.6535 109.434 15.0143 112.301 18.517C112.831 19.5253 113.529 20.6286 114.097 21.6875C114.35 22.9684 114.67 24.2391 114.744 25.5504C115.111 31.9738 114.5 38.7472 114.734 45.2175C114.768 46.1662 114.948 47.2327 114.996 48.1927H107.81C107.58 46.6392 107.52 45.0704 107.552 43.5004C106.695 44.1916 106.024 45.0742 105.177 45.7794C97.1419 52.4703 76.2646 50.5959 78.1729 36.9058C78.2589 36.2933 78.4706 35.1785 78.6862 34.6231V34.6218ZM107.041 32.211C104.925 32.2516 102.801 32.1602 100.685 32.2059C95.9817 32.3086 84.5626 32.0525 86.2913 39.5944C87.6927 45.7071 97.6128 45.3114 101.948 42.8384C105.84 40.6178 107.121 36.4607 107.041 32.2097V32.211Z" fill="#FEBC14"/>
</g>
<defs>
<clipPath id="clip0_46_68">
<rect width="154" height="61" fill="white"/>
</clipPath>
</defs>
</svg>
