<svg width="165" height="55" viewBox="0 0 165 55" fill="none" xmlns="http://www.w3.org/2000/svg">
<g clip-path="url(#clip0_46_73)">
<path d="M47.6773 5.00732C50.0324 5.22269 54.3707 6.45614 56.2716 7.70028C56.4011 7.78571 57.3834 8.61158 57.408 8.67743C57.595 9.17402 55.5934 11.8474 55.2297 12.6145C53.6966 15.8343 52.2786 21.2006 53.4294 24.5646C54.348 27.2487 56.8552 28.459 59.5473 29.5785C59.9851 29.7601 60.7311 29.6942 60.8955 30.2051C61.0434 30.6678 59.907 32.5723 59.5597 33.076C55.4146 39.1062 49.1508 38.4886 41.9417 38.6203C33.4687 38.7752 24.9751 38.4672 16.5001 38.6346V49.6271H0V5.00732H47.6773ZM16.5144 16.2437V27.3733L40.0798 27.4071C43.3597 27.1882 45.2298 26.2662 45.5298 23.2368C45.9326 19.1947 45.2894 16.5374 40.0901 16.1992L16.5144 16.2419V16.2437Z" fill="#F8F8F8"/>
<path d="M96.0269 49.6376C96.0269 49.6376 98.0079 47.9769 98.5977 47.5124C103.222 43.8618 106.296 37.1962 102.765 32.1556C102.021 31.0912 101.191 29.783 100.638 29.0088L115.743 5H136.061C136.061 5 154.824 35.1618 164.339 49.0627L164.392 49.6376H147.044L141.925 41.8008L110.544 41.8506C110.544 41.8506 105.431 49.6376 105.369 49.6376H96.0289H96.0269ZM136.059 32.0328L125.796 15.6739L116.349 32.0328H136.057H136.059Z" fill="#F8F8F8"/>
<path d="M107.814 11.2131C105.887 12.5017 102.74 12.9182 100.408 13.9541C98.7309 14.6981 94.7688 17.4533 93.2522 17.5494C91.7869 17.6438 91.1704 16.7841 91.6636 15.6272C93.47 13.9559 95.7717 12.7206 97.463 10.9621C90.7943 11.2469 83.8051 12.0051 77.4426 13.801C74.1977 14.7176 70.6198 16.0294 67.8352 17.7488C66.7131 18.4411 64.3211 19.8455 65.1287 21.2729C65.7411 22.3551 71.2384 23.4711 72.6975 23.7843C79.7463 25.2972 95.3627 27.4349 100.032 32.2939C103.158 35.5458 102.157 40.3942 99.6043 43.6638C91.7232 53.7575 65.2068 55.5374 52.4017 54.877C49.5205 54.7275 42.556 54.0529 42.4614 50.6836C42.4142 48.9927 45.8687 44.333 47.4737 43.3221C48.2998 42.8023 54.1506 41.099 55.0713 41.172C55.9241 41.2396 55.9981 41.8287 55.6816 42.4303C55.5008 42.7721 54.0355 43.5517 53.5916 43.8133C53.4087 43.9219 53.2114 43.7848 53.3245 44.2084C56.4255 44.3722 59.5554 44.4808 62.6729 44.3953C71.2076 44.1604 83.8605 42.4499 91.1601 38.4843C95.0318 36.3823 92.7672 35.0349 89.7997 33.8656C80.8232 30.3307 70.737 30.4731 61.4912 28.1557C53.9348 26.2619 54.354 21.7944 56.2097 16.0365C57.2784 12.7206 58.4929 10.4335 61.8488 8.47383C73.427 1.72098 95.7799 -2.12178 109.208 1.23329C110.422 1.53765 110.858 1.68894 111.012 2.87078C111.386 5.73816 110.554 9.38157 107.814 11.2148V11.2131Z" fill="#E72534"/>
</g>
<defs>
<clipPath id="clip0_46_73">
<rect width="164.39" height="55" fill="white"/>
</clipPath>
</defs>
</svg>
