<svg width="126" height="53" viewBox="0 0 126 53" fill="none" xmlns="http://www.w3.org/2000/svg">
<g clip-path="url(#clip0_46_54)">
<path d="M9.16177 37.6291H13.4741V41.2351H9.16177V52.9985H4.31235V41.2351H0V37.6291H9.16177ZM24.0802 48.8906L24.0754 48.8859C23.3258 48.9064 22.3886 48.9222 21.2735 48.9222C20.7664 48.9222 20.3758 48.8165 20.1033 48.5987C19.8293 48.3809 19.6371 47.9974 19.5363 47.4419C19.4292 46.8864 19.3788 46.0879 19.3788 45.0479C19.3788 44.0079 19.4292 43.2093 19.5363 42.6538C19.6418 42.0983 19.8308 41.7101 20.1033 41.4971C20.3773 41.2793 20.7727 41.1736 21.2735 41.1736C21.9886 41.1736 22.6012 41.1736 23.1084 41.183C23.6155 41.1925 24.0912 41.1925 24.5369 41.1925C24.9826 41.1925 25.4693 41.202 25.9922 41.213L26.3513 37.6922C25.8442 37.5454 25.3575 37.4302 24.8866 37.3482C24.4156 37.2677 23.899 37.2014 23.3368 37.1619C22.7682 37.1162 22.0847 37.0957 21.2798 37.0957C19.582 37.0957 18.2196 37.3529 17.1911 37.8626C16.1626 38.3724 15.4224 39.2104 14.9672 40.3671C14.5105 41.5239 14.2884 43.0847 14.2884 45.0447C14.2884 47.0048 14.5168 48.564 14.9672 49.7223C15.424 50.8791 16.1626 51.7171 17.1911 52.2268C18.2196 52.7365 19.5835 52.9953 21.2798 52.9953C22.4863 52.9953 23.4943 52.9401 24.3054 52.8296C25.1165 52.7176 25.9119 52.5266 26.6868 52.2631L26.3277 48.7439C25.5827 48.8196 24.833 48.8654 24.0833 48.8906H24.0802ZM56.3251 39.4566C56.7157 40.2141 56.9079 41.2888 56.9079 42.6428C56.9079 43.9968 56.7252 45.0479 56.3614 45.7943C55.996 46.5408 55.399 47.0726 54.5627 47.3756C53.7264 47.6786 52.6018 47.8301 51.1875 47.8301C50.4425 47.8301 49.6975 47.7907 48.9526 47.7086C48.9179 47.7039 48.877 47.6928 48.8408 47.6928V52.9953H43.9913V37.6322C44.6749 37.5565 45.319 37.506 45.9223 37.476C46.5255 37.446 47.1838 37.4302 47.8989 37.4208C48.6139 37.4113 49.4849 37.4113 50.5134 37.4113C52.1498 37.4113 53.4319 37.5628 54.3548 37.8658H54.3596C55.2825 38.1688 55.9408 38.699 56.3251 39.4566ZM52.049 42.6538C52.049 42.163 52.0081 41.7843 51.9167 41.5176C51.8254 41.2493 51.6632 41.0678 51.4253 40.9716C51.1875 40.8753 50.8426 40.8248 50.3953 40.8248H48.8297V44.4308H50.3953C50.841 44.4308 51.1859 44.3803 51.4253 44.2841C51.6632 44.1878 51.8254 44.0063 51.9167 43.7491V43.7538C52.0033 43.4966 52.049 43.1431 52.049 42.6523V42.6538ZM63.4804 48.6839C63.3087 48.5371 63.2221 48.3399 63.2221 48.1031V37.3703H58.3727V49.3293C58.3727 51.8291 60.521 52.7902 62.7449 52.9559C64.3057 53.0727 65.1467 52.9054 66.7076 52.8691C67.9534 52.8391 68.2983 49.8991 68.6086 48.9033H64.1592C63.8757 48.9033 63.6473 48.8275 63.4804 48.6807V48.6839ZM81.1613 38.8758L85.1602 52.9985H80.2242L79.454 49.6797H75.2078L74.4376 52.9985H69.5016L73.5005 38.8758C73.6013 38.4876 73.8045 38.1846 74.1038 37.9621C74.403 37.7395 74.7479 37.6291 75.1322 37.6291H79.5359C79.9265 37.6291 80.2651 37.7395 80.5644 37.9621H80.5597C80.8589 38.1846 81.0558 38.4923 81.1629 38.8758H81.1613ZM78.6681 46.2899L77.9026 42.9916C77.8428 42.7091 77.7908 42.4155 77.7451 42.1125C77.6995 41.8095 77.6648 41.516 77.6333 41.2335H77.0301C77.0002 41.516 76.964 41.8095 76.9183 42.1125C76.8726 42.4155 76.8222 42.7091 76.7608 42.9916L75.9953 46.2899H78.6665H78.6681ZM91.0035 44.6234H90.709C90.6475 44.2793 88.2961 37.6275 88.2961 37.6275H83.3143L88.4315 48.2436V52.9969H93.281V48.1978L98.3745 37.6259H93.3928C93.3928 37.6259 91.0618 44.2777 91.0004 44.6218L91.0035 44.6234ZM104.67 41.1546H110.326L110.549 37.7459C109.804 37.6401 108.979 37.5691 108.072 37.5328C107.165 37.4981 106.237 37.4728 105.289 37.4665C104.341 37.4618 103.424 37.4571 102.528 37.4571C101.468 37.4571 100.602 37.7806 99.9227 38.426C99.2439 39.0731 98.9037 39.9158 98.9037 40.951V49.5014C98.9037 50.5414 99.2439 51.3857 99.9227 52.0264C100.602 52.6734 101.469 52.9969 102.528 52.9969C103.419 52.9969 104.342 52.9969 105.289 52.9875C106.237 52.978 107.165 52.9527 108.072 52.9117C108.979 52.8659 109.804 52.7997 110.549 52.7097L110.326 49.3009H104.67C104.386 49.3009 104.163 49.2252 104 49.0784C103.838 48.9317 103.758 48.7344 103.758 48.4977V46.6497H109.526V43.4413H103.758V41.9516C103.758 41.7133 103.838 41.5223 104 41.3708V41.3756C104.163 41.2288 104.386 41.153 104.67 41.153V41.1546ZM126 52.9985H120.927L119.924 48.433C119.832 47.999 119.695 47.7165 119.508 47.5839C119.32 47.4482 119.016 47.3819 118.601 47.3819C118.053 47.3772 117.556 47.3662 117.106 47.3662V52.9922H112.348V37.6275C113.033 37.5517 113.676 37.5012 114.279 37.4713C114.882 37.4413 115.54 37.4255 116.265 37.416C116.985 37.4066 117.862 37.4066 118.89 37.4066C120.41 37.4066 121.647 37.5486 122.6 37.8311C123.552 38.1088 124.256 38.5886 124.713 39.2656C125.164 39.9426 125.392 40.8816 125.392 42.0841C125.392 42.6901 125.301 43.2614 125.113 43.7869C124.926 44.3125 124.606 44.7464 124.151 45.0905C123.694 45.4345 123.067 45.646 122.261 45.7375V45.8685C122.544 45.8985 122.853 45.9853 123.198 46.1257C123.543 46.2662 123.861 46.5045 124.16 46.8375C124.455 47.1705 124.661 47.6502 124.784 48.272L124.794 48.2767L126 52.9985ZM120.517 42.3966C120.517 41.9674 120.467 41.6391 120.371 41.4166C120.27 41.1893 120.097 41.0378 119.843 40.9463C119.59 40.8595 119.231 40.8153 118.769 40.8153H117.092V43.9716H118.769C119.231 43.9716 119.59 43.9321 119.843 43.8406C120.097 43.7491 120.273 43.5928 120.371 43.3609V43.3656C120.467 43.1336 120.517 42.8243 120.517 42.3966ZM41.4682 43.1588V43.1541H35.1178V46.3625H36.8408V48.7407H36.8204C36.5967 48.7865 36.3494 48.8165 36.0707 48.8417C35.7966 48.8622 35.4926 48.878 35.1634 48.878C34.6563 48.878 34.261 48.7723 33.9775 48.5545C33.694 48.3367 33.4908 47.9532 33.3742 47.3977C33.253 46.8422 33.1978 46.0437 33.1978 45.0037C33.1978 44.2146 33.2325 43.5692 33.2986 43.0531C33.3648 42.5434 33.4813 42.1394 33.6436 41.8506C33.8058 41.5618 34.0294 41.3598 34.313 41.2493C34.5965 41.1388 34.9524 41.0836 35.3871 41.0836C36.0864 41.0836 36.7148 41.0836 37.2629 41.0931C37.8158 41.1025 38.3465 41.1025 38.86 41.1025C39.3734 41.1025 39.9136 41.112 40.4806 41.1231L40.8397 37.648C40.3027 37.487 39.7703 37.3608 39.2427 37.2693C38.7151 37.1777 38.1386 37.113 37.5196 37.0673C36.9007 37.0215 36.1825 37.001 35.3666 37.001C33.5932 37.001 32.1741 37.2582 31.1094 37.7679C30.0447 38.2777 29.2745 39.122 28.8083 40.2835C28.3374 41.4497 28.1043 43.0215 28.1043 44.9958C28.1043 46.97 28.2823 48.4756 28.6414 49.6529C29.0005 50.8254 29.558 51.6776 30.3188 52.2031C31.0795 52.7286 32.0465 52.9969 33.223 52.9969C34.0436 52.9969 34.7634 52.8659 35.3918 52.6071C36.0203 52.3499 36.5368 52.0311 36.9416 51.6634C37.159 51.4661 37.915 52.6892 37.915 52.6892H41.4871L41.4666 46.5976V43.1573H41.4682V43.1588Z" fill="#F8F8F8"/>
<path d="M77.8426 0H48.1585C46.6355 0 45.3865 1.17255 45.2605 2.66704C45.2527 2.74911 45.2495 2.83275 45.2495 2.91639V33.1329H80.7532V2.91481C80.7532 1.30512 79.4506 0 77.8441 0H77.8426ZM72.7317 14.3784L62.9226 28.6762C62.4658 29.3422 61.4248 29.0187 61.4248 28.2091V20.7872H59.6466V20.7919H53.386C52.7796 20.7919 52.3827 20.1559 52.6473 19.6099L59.4214 5.65287C59.5584 5.36881 59.845 5.19048 60.16 5.19048H67.6838C68.2902 5.19048 68.6871 5.82646 68.4225 6.3725L65.1622 13.0875H72.0529C72.7144 13.0875 73.1034 13.8308 72.7301 14.3752L72.7317 14.3784Z" fill="#0968F6"/>
<path d="M24.9986 17.4478C24.9986 17.4478 15.7282 22.5372 15.7203 22.5404C14.5327 23.1922 13.8933 24.7293 14.3485 26.0233C14.5721 26.6593 15.2021 27.0838 15.6841 27.5289C17.1835 28.9113 18.6829 30.2953 20.1823 31.6778C20.4563 31.9303 20.7319 32.1844 21.006 32.4369C21.4911 32.8835 22.1258 33.1312 22.7842 33.1312H29.4874L24.9986 17.4478Z" fill="#3CC14E"/>
<path d="M42.629 6.13086L37.4237 7.62693L28.6667 10.1425C27.1862 10.5686 26.3057 12.0678 26.6239 13.5544C26.6381 13.6191 26.6522 13.6838 26.6711 13.7485L27.3578 16.1504L32.2167 33.1295H42.6275C42.6275 33.1201 42.6275 33.1106 42.6275 33.1011V6.13086H42.629Z" fill="#FFBD14"/>
<path d="M110.28 22.5404L101.001 17.4478L96.5127 33.1312H103.216C103.874 33.1312 104.509 32.8835 104.994 32.4369C105.268 32.1828 105.544 31.9303 105.818 31.6778C107.317 30.2953 108.817 28.9113 110.316 27.5289C110.798 27.0838 111.428 26.6609 111.652 26.0249C112.107 24.7324 111.466 23.1937 110.278 22.542L110.28 22.5404Z" fill="#FF8806"/>
<path d="M107.52 24.5288H107.525C103.684 23.312 103.871 29.8266 98.6422 30.008C98.4642 30.0128 98.3382 30.1848 98.3886 30.3568C98.4249 30.4673 98.5052 30.5588 98.6123 30.5998C104.445 32.9891 104.821 26.0138 107.532 25.0448C107.78 24.9549 107.774 24.6108 107.52 24.5304V24.5288Z" fill="#FFC382"/>
<path d="M104.908 22.4838V22.4886C105.171 22.3923 105.166 22.0341 104.898 21.9473C101.677 20.9388 101.161 25.0877 98.2958 26.9058L97.7383 28.8532C101.829 28.9747 102.444 23.3755 104.908 22.4822V22.4838Z" fill="#FFC382"/>
<path d="M25.2124 22.9257C24.2658 22.6258 23.2767 22.5422 22.2939 22.5153C21.7112 22.4996 20.6654 22.599 19.9472 22.681C19.5251 22.7284 19.2242 23.1071 19.2715 23.5253C19.3597 24.2718 19.5109 25.386 19.6936 25.9636C20.1724 27.4565 21.015 29.0078 22.149 30.1172C23.1633 31.113 24.7399 31.9163 26.2125 31.8074C26.3165 31.7963 26.4094 31.7916 26.4929 31.7916C27.2788 31.7506 27.8033 30.952 27.5072 30.2198C26.7165 28.2645 24.8801 26.6358 23.5886 25.6763C23.4074 25.5422 23.5728 25.2566 23.7807 25.3497C25.3368 26.0346 27.4552 27.3113 28.3545 29.1672L26.7512 23.5632C26.2676 23.2997 25.7258 23.0992 25.2108 22.9335V22.9225L25.2124 22.9257Z" fill="#A6F0A5"/>
<path d="M99.329 13.7485C99.3479 13.6838 99.3621 13.6191 99.3762 13.5544C99.6944 12.0678 98.814 10.5686 97.3335 10.1425L88.5765 7.62693L83.3711 6.13086V33.1011C83.3711 33.1106 83.3711 33.1201 83.3711 33.1295H93.7818L98.6407 16.1504L99.3274 13.7485H99.329Z" fill="#F02D2D"/>
<path d="M86.811 19.3765C86.8803 19.3481 86.9543 19.3229 87.0284 19.3039C87.2205 19.255 87.4205 19.2503 87.5843 19.3529C87.86 19.5249 87.956 19.9415 87.8348 20.2303C87.0142 22.1809 89.2223 25.1493 87.9356 28.1983C87.7355 28.6733 87.4394 29.0978 87.0898 29.4703C86.7669 29.8127 87.1512 30.3493 87.5812 30.1552C89.5641 29.2509 91.5376 27.8874 92.3771 25.8911C93.0228 24.3587 93.048 22.8216 92.8181 21.3255C92.7267 20.7337 91.9927 20.4891 91.5722 20.9168C91.5061 20.9831 91.4305 21.0415 91.3675 21.1062C90.5689 21.911 90.1374 20.9484 90.4508 20.3597C90.6918 19.9052 90.9422 19.4002 91.1375 18.9347C92.2385 16.315 91.9061 14.0425 91.3171 12.4328C91.3171 12.4328 91.3013 12.4012 91.2966 12.387C91.2856 12.3617 91.2761 12.3349 91.2651 12.3097C91.1675 12.0603 91.0446 11.7684 90.9517 11.579C90.7422 11.145 90.1468 11.0835 89.8303 11.4811C89.8192 11.4969 89.7389 11.6342 89.7279 11.6705C89.7027 11.7368 89.6775 11.7983 89.646 11.8646C88.4207 14.4591 85.7778 14.9436 83.3696 16.1903V21.1961C83.3791 21.2482 83.3791 21.3019 83.3696 21.3587V24.7974C83.5681 23.6154 83.6153 23.3298 84.0359 22.3608C84.5682 21.133 85.54 19.8894 86.8094 19.375L86.811 19.3765Z" fill="#FFA0A0"/>
<path d="M41.0116 13.3021C41.0116 13.3021 39.1531 11.4288 39.1484 11.4241C39.0192 11.2931 38.7893 11.2205 38.6113 11.2742C38.4003 11.3373 38.3247 11.5567 38.2475 11.7397C38.1467 11.9764 38.0695 12.221 37.9766 12.4593C37.827 12.8444 37.6758 13.2295 37.5261 13.6145L37.3608 14.0391C37.0962 14.7192 36.4425 15.1674 35.7133 15.1643L33.0594 15.1564C32.8704 15.1579 32.6893 15.2526 32.5838 15.4089C32.4798 15.5698 32.4594 15.7687 32.5381 15.9423L33.6044 18.3458C33.9021 19.0181 33.754 19.8055 33.2295 20.3216L31.3474 22.1791C31.2088 22.3148 31.1537 22.5057 31.1931 22.6951C31.2324 22.8845 31.3663 23.036 31.5427 23.1023L34.0107 24.0523C34.6943 24.3159 35.1432 24.9739 35.14 25.7078L35.1258 28.3432C35.1258 28.531 35.2203 28.7125 35.3778 28.8167C35.5401 28.9208 35.7369 28.9398 35.9133 28.8609L38.3404 27.7862C39.0066 27.4911 39.7863 27.6378 40.3013 28.157C40.7076 28.5673 41.114 28.9777 41.5219 29.3864C41.6668 29.5332 41.8117 29.6783 41.9566 29.8251C42.111 29.9798 42.2669 30.1581 42.4937 30.1928C42.5378 30.1991 42.5835 30.1991 42.6291 30.1928V24.7767C42.4212 24.884 42.2039 24.9724 41.9802 25.0355C41.4069 25.1964 40.7454 25.2343 40.1548 25.1696C40.0572 25.1586 39.9611 25.1444 39.8634 25.1254C37.4175 24.6646 35.8125 22.3179 36.2756 19.8781C36.4662 18.8745 37.0064 17.9528 37.7844 17.2932C38.1231 17.0059 38.5042 16.7676 38.9106 16.5893C39.6902 16.25 40.6179 16.1743 41.4495 16.3305C41.87 16.4094 42.2653 16.5451 42.6291 16.7266V13.7802C42.0511 13.9033 41.44 13.7313 41.0132 13.2989L41.0116 13.3021Z" fill="#FFE58A"/>
<path d="M40.4476 17.1687C39.972 17.1908 39.5247 17.3091 39.1183 17.4969V17.4938C39.09 17.508 39.0632 17.5206 39.0349 17.5364C39.027 17.5411 39.0191 17.5443 39.0112 17.5474C37.8347 18.1834 37.0567 19.4491 37.1165 20.8741V20.8789C37.2031 22.8547 38.8789 24.3839 40.8634 24.2876C41.3391 24.2655 41.7864 24.1472 42.1912 23.9594V23.9625C42.2195 23.9483 42.2463 23.9357 42.2746 23.9199C42.2825 23.9168 42.2904 23.912 42.2983 23.9089C42.4117 23.8458 42.5219 23.7795 42.6274 23.7069V17.781C42.01 17.3628 41.2525 17.1324 40.4461 17.1718L40.4476 17.1687Z" fill="#FFE58A"/>
<path d="M72.7318 14.3782L62.9227 28.6761C62.4659 29.3421 61.4249 29.0185 61.4249 28.2105V20.7886H59.6467V20.7933H53.3861C52.7797 20.7933 52.3828 20.1573 52.6474 19.6113L59.4215 5.65429C59.5585 5.37022 59.8451 5.19189 60.1601 5.19189H67.6839C68.2903 5.19189 68.6872 5.82788 68.4226 6.37392L65.1623 13.0889H72.053C72.7145 13.0889 73.1035 13.8322 72.7302 14.3766L72.7318 14.3782Z" fill="#F8F8F8"/>
</g>
<defs>
<clipPath id="clip0_46_54">
<rect width="126" height="53" fill="white"/>
</clipPath>
</defs>
</svg>
