<svg width="36" height="33" viewBox="0 0 36 33" fill="none" xmlns="http://www.w3.org/2000/svg">
<path opacity="0.8" d="M0 4.3335L18 9.77794V32.3335L0 26.8891V4.3335Z" fill="url(#paint0_linear_210_85)"/>
<path opacity="0.8" d="M36 4.3335L18 9.77794V32.3335L36 26.8891V4.3335Z" fill="url(#paint1_linear_210_85)"/>
<path opacity="0.8" d="M7 6.3335L18 9.70387V23.6668L7 20.2965V6.3335Z" fill="url(#paint2_linear_210_85)"/>
<path opacity="0.8" d="M29 6.3335L18 9.70387V23.6668L29 20.2965V6.3335Z" fill="url(#paint3_linear_210_85)"/>
<path opacity="0.8" d="M18.1184 0.000161759L36 4.33349L18.1184 9.90385L1.12188e-06 4.33349L18.1184 0.000161759Z" fill="url(#paint4_linear_210_85)"/>
<defs>
<linearGradient id="paint0_linear_210_85" x1="18" y1="32.3335" x2="9" y2="5.66683" gradientUnits="userSpaceOnUse">
<stop stop-color="#FFA249"/>
<stop offset="1" stop-color="#8800D4"/>
</linearGradient>
<linearGradient id="paint1_linear_210_85" x1="18" y1="32.3335" x2="27" y2="5.66683" gradientUnits="userSpaceOnUse">
<stop stop-color="#FFA249"/>
<stop offset="1" stop-color="#8800D4"/>
</linearGradient>
<linearGradient id="paint2_linear_210_85" x1="18" y1="23.6668" x2="12.3713" y2="7.20291" gradientUnits="userSpaceOnUse">
<stop stop-color="#FFA249"/>
<stop offset="1" stop-color="#9E00F6"/>
</linearGradient>
<linearGradient id="paint3_linear_210_85" x1="18" y1="23.6668" x2="23.6287" y2="7.20291" gradientUnits="userSpaceOnUse">
<stop stop-color="#FFA249"/>
<stop offset="1" stop-color="#9E00F6"/>
</linearGradient>
<linearGradient id="paint4_linear_210_85" x1="18" y1="0.333496" x2="18" y2="10.1668" gradientUnits="userSpaceOnUse">
<stop stop-color="#9E00F6"/>
<stop offset="1" stop-color="#FFA249"/>
</linearGradient>
</defs>
</svg>
