<svg width="202" height="70" viewBox="0 0 202 70" fill="none" xmlns="http://www.w3.org/2000/svg">
<path d="M55.5754 64.953L55.1415 60.9109L54.417 60.2293L52.5066 42.354C53.6572 41.6292 57.5682 41.7864 57.5682 41.7864C52.0335 37.5262 62.7201 25.9832 62.7201 25.9832C51.4366 26.2385 57.525 17.7614 57.525 17.7614C51.2658 20.8706 49.9464 16.3983 49.9464 16.3983L48.7959 6.68582L49.3063 5.1106L48.5406 0L10.4746 5.1106L11.1127 9.96587L11.9216 11.2013L13.7103 23.9798C13.7103 23.9798 13.1998 29.3477 7.45102 28.1535C7.45102 28.1535 13.9655 35.6505 0 38.3335C0 38.3335 16.3078 42.2518 8.8568 51.4949C8.8568 51.4949 12.9878 49.7488 16.5218 52.9425L17.9276 64.2734L17.3307 65.7642L17.6959 69.5981L55.5754 64.951V64.953Z" fill="#040E74"/>
<path d="M47.6761 4.05454L12.03 8.99634L12.0942 9.45937L47.7403 4.51758L47.6761 4.05454Z" fill="url(#paint0_linear_196_1074)"/>
<path d="M46.2301 1.48492L45.7498 1.55151L46.129 4.28885L46.6093 4.22225L46.2301 1.48492Z" fill="url(#paint1_linear_196_1074)"/>
<path d="M47.2877 1.33941L46.8074 1.40601L47.1866 4.14334L47.6669 4.07675L47.2877 1.33941Z" fill="url(#paint2_linear_196_1074)"/>
<path d="M45.1723 1.63311L44.6919 1.69971L45.0711 4.43704L45.5515 4.37045L45.1723 1.63311Z" fill="url(#paint3_linear_196_1074)"/>
<path d="M44.1129 1.77886L43.6326 1.84546L44.0118 4.58279L44.4921 4.5162L44.1129 1.77886Z" fill="url(#paint4_linear_196_1074)"/>
<path d="M43.0539 1.92706L42.5735 1.99365L42.9527 4.73099L43.4331 4.66439L43.0539 1.92706Z" fill="url(#paint5_linear_196_1074)"/>
<path d="M40.9367 2.21905L40.4563 2.28564L40.8355 5.02298L41.3159 4.95638L40.9367 2.21905Z" fill="url(#paint6_linear_196_1074)"/>
<path d="M41.996 2.07305L41.5156 2.13965L41.8948 4.87698L42.3752 4.81039L41.996 2.07305Z" fill="url(#paint7_linear_196_1074)"/>
<path d="M39.8788 2.36651L39.3984 2.43311L39.7776 5.17044L40.258 5.10385L39.8788 2.36651Z" fill="url(#paint8_linear_196_1074)"/>
<path d="M38.8214 2.51446L38.3411 2.58105L38.7203 5.31839L39.2006 5.25179L38.8214 2.51446Z" fill="url(#paint9_linear_196_1074)"/>
<path d="M37.7619 2.6585L37.2815 2.7251L37.6607 5.46243L38.1411 5.39584L37.7619 2.6585Z" fill="url(#paint10_linear_196_1074)"/>
<path d="M35.643 2.9544L35.1626 3.021L35.5418 5.75833L36.0222 5.69174L35.643 2.9544Z" fill="url(#paint11_linear_196_1074)"/>
<path d="M36.7045 2.80621L36.2241 2.8728L36.6033 5.61014L37.0837 5.54354L36.7045 2.80621Z" fill="url(#paint12_linear_196_1074)"/>
<path d="M34.5853 3.1004L34.105 3.16699L34.4842 5.90433L34.9646 5.83773L34.5853 3.1004Z" fill="url(#paint13_linear_196_1074)"/>
<path d="M33.5277 3.24615L33.0474 3.31274L33.4266 6.05008L33.9069 5.98348L33.5277 3.24615Z" fill="url(#paint14_linear_196_1074)"/>
<path d="M32.4684 3.3941L31.988 3.46069L32.3672 6.19803L32.8476 6.13143L32.4684 3.3941Z" fill="url(#paint15_linear_196_1074)"/>
<path d="M30.3532 3.68804L29.8728 3.75464L30.252 6.49197L30.7324 6.42538L30.3532 3.68804Z" fill="url(#paint16_linear_196_1074)"/>
<path d="M31.4108 3.53985L30.9304 3.60645L31.3096 6.34378L31.79 6.27719L31.4108 3.53985Z" fill="url(#paint17_linear_196_1074)"/>
<path d="M29.2936 3.8338L28.8132 3.90039L29.1924 6.63773L29.6728 6.57113L29.2936 3.8338Z" fill="url(#paint18_linear_196_1074)"/>
<path d="M28.234 3.98004L27.7537 4.04663L28.1329 6.78397L28.6132 6.71737L28.234 3.98004Z" fill="url(#paint19_linear_196_1074)"/>
<path d="M27.1747 4.12798L26.6943 4.19458L27.0735 6.93192L27.5539 6.86532L27.1747 4.12798Z" fill="url(#paint20_linear_196_1074)"/>
<path d="M25.0001 4.42755L24.5198 4.49414L24.899 7.23148L25.3793 7.16488L25.0001 4.42755Z" fill="url(#paint21_linear_196_1074)"/>
<path d="M26.058 4.2835L25.5776 4.3501L25.9568 7.08743L26.4372 7.02084L26.058 4.2835Z" fill="url(#paint22_linear_196_1074)"/>
<path d="M23.9408 4.57525L23.4604 4.64185L23.8397 7.37918L24.32 7.31259L23.9408 4.57525Z" fill="url(#paint23_linear_196_1074)"/>
<path d="M22.8832 4.7232L22.4028 4.78979L22.782 7.52713L23.2624 7.46054L22.8832 4.7232Z" fill="url(#paint24_linear_196_1074)"/>
<path d="M21.8258 4.8692L21.3455 4.93579L21.7247 7.67313L22.205 7.60653L21.8258 4.8692Z" fill="url(#paint25_linear_196_1074)"/>
<path d="M19.5712 5.1817L19.0908 5.24829L19.47 7.98563L19.9504 7.91903L19.5712 5.1817Z" fill="url(#paint26_linear_196_1074)"/>
<path d="M20.6288 5.0357L20.1484 5.10229L20.5276 7.83963L21.008 7.77304L20.6288 5.0357Z" fill="url(#paint27_linear_196_1074)"/>
<path d="M18.5136 5.3294L18.0332 5.396L18.4124 8.13333L18.8928 8.06674L18.5136 5.3294Z" fill="url(#paint28_linear_196_1074)"/>
<path d="M17.454 5.47564L16.9736 5.54224L17.3528 8.27957L17.8332 8.21298L17.454 5.47564Z" fill="url(#paint29_linear_196_1074)"/>
<path d="M16.3964 5.62139L15.916 5.68799L16.2952 8.42532L16.7756 8.35873L16.3964 5.62139Z" fill="url(#paint30_linear_196_1074)"/>
<path d="M14.1268 5.93585L13.6465 6.00244L14.0257 8.73978L14.5061 8.67318L14.1268 5.93585Z" fill="url(#paint31_linear_196_1074)"/>
<path d="M15.2606 5.7796L14.7803 5.84619L15.1595 8.58353L15.6398 8.51693L15.2606 5.7796Z" fill="url(#paint32_linear_196_1074)"/>
<path d="M13.1017 6.07916L12.6213 6.14575L13.0005 8.88309L13.4809 8.81649L13.1017 6.07916Z" fill="url(#paint33_linear_196_1074)"/>
<path d="M12.1337 6.21295L11.6533 6.27954L12.0325 9.01688L12.5129 8.95028L12.1337 6.21295Z" fill="url(#paint34_linear_196_1074)"/>
<path d="M18.3626 66.0528L54.0925 61.759L54.0368 61.2949L18.3069 65.5887L18.3626 66.0528Z" fill="url(#paint35_linear_196_1074)"/>
<path d="M19.7619 68.6497L20.2434 68.5918L19.9139 65.848L19.4324 65.9059L19.7619 68.6497Z" fill="url(#paint36_linear_196_1074)"/>
<path d="M18.7006 68.7776L19.1821 68.7197L18.8526 65.976L18.3712 66.0338L18.7006 68.7776Z" fill="url(#paint37_linear_196_1074)"/>
<path d="M20.821 68.5203L21.3025 68.4624L20.973 65.7186L20.4915 65.7765L20.821 68.5203Z" fill="url(#paint38_linear_196_1074)"/>
<path d="M21.8825 68.3926L22.364 68.3347L22.0345 65.5909L21.553 65.6488L21.8825 68.3926Z" fill="url(#paint39_linear_196_1074)"/>
<path d="M22.944 68.2649L23.4255 68.207L23.0961 65.4633L22.6146 65.5211L22.944 68.2649Z" fill="url(#paint40_linear_196_1074)"/>
<path d="M25.0671 68.0115L25.5486 67.9536L25.2191 65.2098L24.7376 65.2677L25.0671 68.0115Z" fill="url(#paint41_linear_196_1074)"/>
<path d="M24.0056 68.1375L24.4871 68.0796L24.1576 65.3358L23.6761 65.3937L24.0056 68.1375Z" fill="url(#paint42_linear_196_1074)"/>
<path d="M26.1264 67.8838L26.6079 67.8259L26.2784 65.0822L25.7969 65.14L26.1264 67.8838Z" fill="url(#paint43_linear_196_1074)"/>
<path d="M27.1879 67.7561L27.6694 67.6982L27.34 64.9545L26.8585 65.0123L27.1879 67.7561Z" fill="url(#paint44_linear_196_1074)"/>
<path d="M28.2495 67.6284L28.731 67.5706L28.4015 64.8268L27.92 64.8846L28.2495 67.6284Z" fill="url(#paint45_linear_196_1074)"/>
<path d="M30.372 67.373L30.8535 67.3152L30.524 64.5714L30.0425 64.6293L30.372 67.373Z" fill="url(#paint46_linear_196_1074)"/>
<path d="M29.3107 67.5007L29.7922 67.4429L29.4628 64.6991L28.9813 64.757L29.3107 67.5007Z" fill="url(#paint47_linear_196_1074)"/>
<path d="M31.4316 67.2473L31.9131 67.1895L31.5836 64.4457L31.1021 64.5035L31.4316 67.2473Z" fill="url(#paint48_linear_196_1074)"/>
<path d="M32.4951 67.1196L32.9766 67.0618L32.6471 64.318L32.1656 64.3759L32.4951 67.1196Z" fill="url(#paint49_linear_196_1074)"/>
<path d="M33.5546 66.9922L34.0361 66.9343L33.7067 64.1906L33.2252 64.2484L33.5546 66.9922Z" fill="url(#paint50_linear_196_1074)"/>
<path d="M35.6772 66.7346L36.1587 66.6768L35.8292 63.933L35.3477 63.9908L35.6772 66.7346Z" fill="url(#paint51_linear_196_1074)"/>
<path d="M34.6157 66.8623L35.0972 66.8044L34.7677 64.0607L34.2862 64.1185L34.6157 66.8623Z" fill="url(#paint52_linear_196_1074)"/>
<path d="M36.7385 66.6091L37.22 66.5513L36.8905 63.8075L36.409 63.8654L36.7385 66.6091Z" fill="url(#paint53_linear_196_1074)"/>
<path d="M37.7998 66.481L38.2812 66.4231L37.9518 63.6793L37.4703 63.7372L37.7998 66.481Z" fill="url(#paint54_linear_196_1074)"/>
<path d="M38.8593 66.3538L39.3408 66.2959L39.0113 63.5521L38.5298 63.61L38.8593 66.3538Z" fill="url(#paint55_linear_196_1074)"/>
<path d="M41.0405 66.0933L41.522 66.0354L41.1925 63.2916L40.711 63.3495L41.0405 66.0933Z" fill="url(#paint56_linear_196_1074)"/>
<path d="M39.979 66.2192L40.4604 66.1614L40.131 63.4176L39.6495 63.4755L39.979 66.2192Z" fill="url(#paint57_linear_196_1074)"/>
<path d="M42.1018 65.9639L42.5833 65.906L42.2538 63.1622L41.7723 63.2201L42.1018 65.9639Z" fill="url(#paint58_linear_196_1074)"/>
<path d="M43.163 65.8359L43.6445 65.7781L43.315 63.0343L42.8336 63.0922L43.163 65.8359Z" fill="url(#paint59_linear_196_1074)"/>
<path d="M44.2226 65.7085L44.7041 65.6506L44.3746 62.9069L43.8931 62.9647L44.2226 65.7085Z" fill="url(#paint60_linear_196_1074)"/>
<path d="M46.4816 65.436L46.9631 65.3782L46.6337 62.6344L46.1522 62.6923L46.4816 65.436Z" fill="url(#paint61_linear_196_1074)"/>
<path d="M45.4206 65.5654L45.9021 65.5076L45.5726 62.7638L45.0911 62.8217L45.4206 65.5654Z" fill="url(#paint62_linear_196_1074)"/>
<path d="M47.5432 65.3103L48.0247 65.2524L47.6952 62.5087L47.2137 62.5665L47.5432 65.3103Z" fill="url(#paint63_linear_196_1074)"/>
<path d="M48.6047 65.1824L49.0862 65.1245L48.7567 62.3807L48.2752 62.4386L48.6047 65.1824Z" fill="url(#paint64_linear_196_1074)"/>
<path d="M49.6662 65.0549L50.1477 64.9971L49.8182 62.2533L49.3367 62.3112L49.6662 65.0549Z" fill="url(#paint65_linear_196_1074)"/>
<path d="M51.9394 64.7803L52.4209 64.7224L52.0914 61.9786L51.6099 62.0365L51.9394 64.7803Z" fill="url(#paint66_linear_196_1074)"/>
<path d="M50.8017 64.9182L51.2832 64.8604L50.9537 62.1166L50.4722 62.1744L50.8017 64.9182Z" fill="url(#paint67_linear_196_1074)"/>
<path d="M52.9648 64.6582L53.4463 64.6003L53.1168 61.8566L52.6353 61.9144L52.9648 64.6582Z" fill="url(#paint68_linear_196_1074)"/>
<path d="M53.9379 64.5432L54.4194 64.4854L54.09 61.7416L53.6085 61.7994L53.9379 64.5432Z" fill="url(#paint69_linear_196_1074)"/>
<path d="M13.0918 10.3862L47.6669 5.67041L53.3097 60.1861L19.0526 64.3166L13.0918 10.3862Z" fill="url(#paint70_linear_196_1074)"/>
<path d="M51.0265 18.8416C51.0265 18.8416 52.9585 20.458 55.2576 19.7765C55.2576 19.7765 53.0429 25.7395 60.111 27.0181C60.111 27.0181 54.4055 32.386 54.7451 39.7966C54.7451 39.7966 50.7418 40.3073 48.4427 42.5228L40.5774 48.203L52.3302 37.1843C52.3302 37.1843 52.501 31.1918 56.0763 27.3599C56.0763 27.3599 51.6194 25.4861 51.0245 18.8416H51.0265Z" fill="#91E8FF"/>
<path d="M51.0262 18.8417C51.5779 25.5806 56.0779 27.3601 56.0779 27.3601C52.5007 30.7973 52.3318 37.1845 52.3318 37.1845L36.0102 52.7736L32.9454 53.2568L15.4321 48.2032C14.6938 41.3877 9.41431 38.6615 9.41431 38.6615C13.131 36.2143 13.0544 31.1076 13.0544 31.1076L41.6589 7.67188L37.3394 13.3756L42.9606 12.6941C42.9606 12.6941 45.7506 12.0263 46.0254 14.6543L46.5359 17.9775L51.0262 18.8437V18.8417Z" fill="#040E74"/>
<path d="M16.9299 30.746L36.3576 15.0352L41.0245 14.5029C41.0245 14.5029 43.8027 13.8037 44.3996 15.8915L47.4408 38.8362L35.745 50.6385L32.5251 51.2749L18.8894 47.2426L16.9299 30.748V30.746Z" fill="#040E74"/>
<path d="M12.9392 10.3683L14.3823 22.2288L14.5951 13.9834C14.5951 13.9834 14.6529 11.4249 16.289 11.036L23.5075 8.9458L12.9392 10.3663V10.3683Z" fill="white"/>
<path d="M47.6795 5.69287L46.5408 6.85169L48.8399 17.3557L47.6795 5.69287Z" fill="white"/>
<path d="M52.2314 49.7437L53.3135 60.1888L43.5601 61.3834L51.6544 58.92L52.2314 49.7437Z" fill="white"/>
<path d="M19.0026 64.314L20.1203 63.148L17.7493 52.522L19.0026 64.314Z" fill="white"/>
<path d="M41.0915 8.13159L32.9887 13.7627L32.5626 11.8457C32.5626 11.8457 22.7284 25.6513 14.9377 27.6844C14.6594 27.757 14.2109 27.5645 14.2109 27.5645C14.2109 27.5645 13.3588 29.3538 9.9111 29.2673C9.9111 29.2673 13.9989 35.6134 4.58838 38.2551C4.58838 38.2551 14.4249 41.1934 12.2946 49.586C12.2946 49.586 15.9267 50.1191 17.7153 52.5899C17.7153 52.5899 25.0272 50.2676 30.9016 53.5476C30.9016 53.5476 31.4769 53.2177 32.8178 53.2589L15.3791 48.0167C15.3791 48.0167 14.6919 41.7296 9.4124 38.6617C9.4124 38.6617 13.3077 36.7093 13.0525 31.1077L41.0915 8.13159Z" fill="url(#paint71_linear_196_1074)"/>
<path d="M42.8779 17.5667H45.7483C45.9584 17.5667 46.1241 17.7506 46.1034 17.9612L44.8605 30.5947C44.7363 31.8525 43.8367 32.8017 42.7684 32.8017H32.9797C31.8167 32.8017 30.8757 31.6863 30.8757 30.307V26.7266C30.8757 26.5101 31.0237 26.3351 31.2072 26.3351H34.0597C34.2432 26.3351 34.3912 26.5101 34.3912 26.7266V27.7204C34.3912 28.2454 34.7492 28.6696 35.1931 28.6696H40.5728C40.9871 28.6696 41.3333 28.2958 41.3717 27.8094L42.5228 17.887C42.5435 17.7061 42.6945 17.5667 42.8779 17.5667Z" fill="url(#paint72_linear_196_1074)"/>
<path d="M45.7485 15.489C47.1989 15.489 48.3098 16.7451 48.1702 18.1645L46.9275 30.7981V30.799C46.7272 32.8261 45.1759 34.8791 42.7687 34.8792H32.9797C30.3533 34.8791 28.7991 32.489 28.7991 30.307V26.7267C28.7991 25.701 29.5657 24.2577 31.2072 24.2576V26.3349C31.0238 26.3349 30.8759 26.5102 30.8759 26.7267V30.307L30.8786 30.4354C30.9349 31.7548 31.8531 32.8015 32.9797 32.8016H42.7687L42.8682 32.7989C43.8593 32.7438 44.6854 31.8721 44.8467 30.7116L44.8607 30.5947L46.1034 17.9612C46.1229 17.7637 45.9785 17.5897 45.7873 17.5687L45.7485 17.5666V15.489ZM35.1518 28.6683C34.7547 28.6445 34.435 28.2807 34.3954 27.8176L34.3914 27.7204V26.7267C34.3914 26.5102 34.2433 26.3349 34.0598 26.3349V24.2576C35.6307 24.2576 36.4 25.5793 36.4634 26.592H39.4225L40.4601 17.6473C40.5986 16.4522 41.6069 15.4891 42.8779 15.489V17.5666C42.6945 17.5667 42.5437 17.7062 42.523 17.8871L41.3718 27.8094L41.3612 27.8992C41.29 28.3411 40.9613 28.6695 40.573 28.6695H35.1933L35.1518 28.6683ZM34.0598 24.2576V26.3349H31.2072V24.2576H34.0598ZM45.7485 15.489V17.5666H42.8779V15.489H45.7485Z" fill="#040E74"/>
<path d="M62.4823 30.621L63.8698 18.0087C63.8964 17.7743 63.737 17.5667 63.5333 17.5667H61.0712C60.9029 17.5667 60.7612 17.7091 60.7347 17.8989L59.4387 27.7283C59.3767 28.1911 59.0343 28.5323 58.6298 28.5353L53.2245 28.556C52.7374 28.556 52.3566 28.0695 52.4068 27.5087L53.254 17.9998C53.2747 17.7684 53.1182 17.5667 52.9175 17.5667H50.3049C50.1337 17.5667 49.989 17.715 49.9684 17.9108L48.6606 29.998C48.4982 31.4873 49.5019 32.8017 50.8008 32.8017H60.345C61.4314 32.8017 62.3465 31.8671 62.4823 30.621Z" fill="url(#paint73_linear_196_1074)"/>
<path d="M63.5333 15.489C65.2847 15.489 66.0626 17.1043 65.9335 18.2428L65.9332 18.2425L64.5467 30.8457L64.547 30.846C64.3231 32.9 62.7217 34.8792 60.3451 34.8792H50.8009C47.9509 34.8792 46.3364 32.1551 46.596 29.7728H46.5963L47.9037 17.6871C48.0125 16.681 48.844 15.4891 50.3049 15.489V17.5666C50.1337 17.5667 49.989 17.715 49.9684 17.9108L48.6607 29.998L48.6489 30.137C48.5614 31.5682 49.5426 32.8016 50.8009 32.8016H60.3451C61.4315 32.8016 62.3465 31.8669 62.4823 30.6208L63.8698 18.0088C63.8963 17.7744 63.737 17.5666 63.5333 17.5666V15.489ZM61.0712 17.5666C60.9029 17.5667 60.7612 17.7091 60.7347 17.8989L59.4388 27.7283C59.3768 28.1911 59.0344 28.5321 58.63 28.5351L53.2245 28.556L53.1793 28.5545C52.7142 28.5254 52.3582 28.0518 52.4068 27.5086L53.2542 17.9997C53.2749 17.7683 53.1182 17.5666 52.9175 17.5666V15.489C54.6556 15.489 55.4213 17.0782 55.3226 18.1845L54.5841 26.473L57.511 26.4618L58.6758 17.6273L58.6782 17.6109C58.8137 16.6425 59.6356 15.4891 61.0712 15.489V17.5666ZM63.5333 15.489V17.5666H61.0712V15.489H63.5333ZM52.9175 15.489V17.5666H50.3049V15.489H52.9175Z" fill="#040E74"/>
<path d="M80.4833 18.0029L80.1881 20.1276C80.1615 20.3234 79.9756 20.4718 79.7542 20.4718H71.5626C70.9575 20.4718 70.4468 20.8695 70.3641 21.4066L70.2372 22.2375C70.1368 22.8873 70.7007 23.469 71.4357 23.469H77.1565C78.8568 23.469 80.2265 24.7212 80.1881 26.2436L80.0848 30.3862C80.0523 31.7304 78.8243 32.8017 77.3248 32.8017H67.548C66.2816 32.8017 65.2573 31.8847 65.2573 30.7511V29.6443C65.2573 29.4277 65.4521 29.2526 65.6972 29.2526H75.1817C75.8488 29.2526 76.392 28.7689 76.392 28.1694V27.6501C76.392 27.0537 75.8518 26.567 75.1817 26.567H68.3568C66.7038 26.567 65.4138 25.2821 65.5938 23.8102L65.8831 21.4273C66.1518 19.2314 68.224 17.5667 70.6947 17.5667H80.0494C80.3121 17.5667 80.5158 17.7744 80.4833 18.0088V18.0029Z" fill="url(#paint74_linear_196_1074)"/>
<path d="M80.0494 15.489V17.5666H70.6945V15.489H80.0494ZM76.3919 28.1693L76.3903 28.2252C76.3589 28.78 75.8616 29.223 75.2438 29.2511L75.1816 29.2526H65.6972L65.6516 29.2544C65.4284 29.2745 65.2573 29.4411 65.2572 29.6441V30.751C65.2572 31.8492 66.2185 32.744 67.4299 32.7989L67.5479 32.8016H77.3245C78.824 32.8016 80.052 31.7304 80.0846 30.3862L80.1881 26.2435C80.2252 24.7688 78.9409 23.5473 77.3148 23.4724L77.1564 23.4688H71.4354C70.7235 23.4687 70.1722 22.923 70.2297 22.2981L70.237 22.2374L70.3641 21.4064C70.4417 20.9029 70.8953 20.522 71.4503 20.4764L71.5626 20.4718H79.7542L79.7951 20.47C79.998 20.453 80.1631 20.3112 80.1881 20.1277L80.4833 18.0027V18.0088C80.5137 17.7891 80.3366 17.5928 80.0979 17.569L80.0494 17.5666V15.489C81.3151 15.4891 82.7793 16.5687 82.5403 18.2938L82.5391 18.2935L82.2448 20.4136L82.2445 20.4133C82.0895 21.5357 81.2637 22.2398 80.3804 22.4678C81.5304 23.3338 82.3046 24.6719 82.2639 26.2951L82.1608 30.4378C82.0952 33.1157 79.7321 34.8792 77.3245 34.8792H67.5479C65.3576 34.8792 63.1804 33.2431 63.1804 30.751V29.6441C63.1805 28.4124 64.0031 27.6001 64.9174 27.3022C63.9377 26.3963 63.345 25.089 63.5324 23.5577L63.8215 21.1769L63.8218 21.1748C64.2391 17.7644 67.358 15.4891 70.6945 15.489V17.5666C68.2238 17.5666 66.1518 19.2314 65.8831 21.4273L65.5937 23.8102C65.4193 25.2361 66.6246 26.4864 68.203 26.5631L68.3568 26.5671H75.1816C75.8516 26.5671 76.3918 27.0536 76.3919 27.65V28.1693Z" fill="#040E74"/>
<path d="M82.0663 17.5696H96.1861C96.4517 17.5696 96.6583 17.7654 96.6376 17.9938L96.4133 20.3758C96.3956 20.5804 96.1979 20.7347 95.9618 20.7347H92.0688C91.8386 20.7347 91.6438 20.886 91.6172 21.0847L90.1562 32.4517C90.1297 32.6504 89.9378 32.8017 89.7047 32.8017H85.186C84.9174 32.8017 84.7049 32.6 84.7344 32.3656L86.1511 21.1707C86.1806 20.9394 85.9711 20.7347 85.6995 20.7347H81.8626C81.6 20.7347 81.3904 20.5419 81.4111 20.3135L81.6088 17.9315C81.6265 17.7268 81.8243 17.5667 82.0604 17.5667L82.0663 17.5696Z" fill="url(#paint75_linear_196_1074)"/>
<path d="M82.552 15.489L82.558 15.492H96.186V17.5696H82.0662L82.0604 17.5666C81.8243 17.5666 81.6264 17.7267 81.6087 17.9314L81.4112 20.3134C81.3918 20.5275 81.5747 20.7103 81.8141 20.7323L81.8626 20.7347H85.6995C85.971 20.7347 86.1804 20.9392 86.1509 21.1705L84.7343 32.3655C84.7048 32.5997 84.9173 32.8015 85.1858 32.8016H89.7047L89.7478 32.7998C89.9468 32.7836 90.1082 32.6567 90.1492 32.4884L90.1562 32.4517L91.6171 21.0846C91.642 20.8983 91.8149 20.7539 92.0261 20.7365L92.0688 20.7347H95.9618L96.0055 20.7329C96.2219 20.7152 96.3967 20.5675 96.4133 20.3756L96.6375 17.9936C96.6568 17.7796 96.4766 17.5941 96.2352 17.5717L96.186 17.5696V15.492C97.3535 15.4921 98.8633 16.4396 98.7058 18.1809L98.7055 18.1848L98.7052 18.1885L98.481 20.5705L98.4804 20.5702C98.3392 22.1024 96.9847 22.8122 95.9618 22.8123H93.4888L92.216 32.7166L92.2148 32.7269C92.0233 34.1593 90.7611 34.8791 89.7047 34.8792H85.1858C84.0274 34.8791 82.4464 33.9129 82.6739 32.1059L82.6742 32.1047L83.8502 22.8123H81.8626C80.7321 22.8123 79.1922 21.8994 79.3419 20.1413H79.3413L79.5398 17.7523C79.6699 16.248 80.9893 15.489 82.0604 15.489H82.552Z" fill="#040E74"/>
<path d="M31.8595 36.2545H50.9667C51.3262 36.2545 51.6058 36.5194 51.5778 36.8285L51.2743 40.0518C51.2503 40.3288 50.9827 40.5376 50.6632 40.5376H45.3951C45.0836 40.5376 44.82 40.7423 44.7841 41.0112L42.807 56.3933C42.7711 56.6622 42.5115 56.8669 42.1959 56.8669H36.0812C35.7177 56.8669 35.4301 56.594 35.4701 56.2769L37.3872 41.1276C37.4271 40.8145 37.1436 40.5376 36.7761 40.5376H31.5839C31.2285 40.5376 30.9449 40.2766 30.9729 39.9676L31.2404 36.7442C31.2644 36.4673 31.532 36.2505 31.8515 36.2505L31.8595 36.2545Z" fill="url(#paint76_linear_196_1074)"/>
<path d="M32.5186 33.4392L32.5268 33.4433H50.9665V36.2547H31.8592L31.8514 36.2506C31.5319 36.2506 31.2641 36.4674 31.2401 36.7443L30.9728 39.9677C30.9466 40.2575 31.1941 40.5047 31.518 40.5345L31.5837 40.5378H36.7759C37.1432 40.5378 37.4266 40.8146 37.3868 41.1276L35.4698 56.2769C35.4299 56.5939 35.7174 56.867 36.0807 56.8671H42.1959L42.2542 56.8646C42.5235 56.8427 42.7419 56.6709 42.7973 56.4432L42.8068 56.3935L44.7837 41.0114C44.8174 40.7592 45.0514 40.5637 45.3372 40.5403L45.3951 40.5378H50.6631L50.7223 40.5353C51.015 40.5114 51.2516 40.3116 51.2741 40.0519L51.5775 36.8285C51.6036 36.5388 51.3598 36.2879 51.0331 36.2576L50.9665 36.2547V33.4433C52.5464 33.4433 54.5895 34.7254 54.3764 37.0819L54.376 37.0873L54.3756 37.0922L54.0721 40.3156L54.0713 40.3152C53.8803 42.3885 52.0474 43.3492 50.6631 43.3492H47.3165L45.5942 56.7521L45.5934 56.759L45.5921 56.766C45.333 58.7043 43.6253 59.6784 42.1959 59.6785H36.0807C34.5131 59.6784 32.3737 58.3709 32.6816 55.9257L32.682 55.924L34.2734 43.3492H31.5837C30.0539 43.3492 27.97 42.114 28.1727 39.7348H28.1718L28.4404 36.502C28.6165 34.4663 30.4018 33.4392 31.8514 33.4392H32.5186Z" fill="#040E74"/>
<path d="M54.8384 36.2545H58.9587C59.2651 36.2545 59.5039 36.5436 59.4561 36.8609L58.8752 43.8843C58.8314 44.2055 59.0662 44.4906 59.3726 44.4906H65.0628C65.3135 44.4906 65.5283 44.2979 65.5642 44.0328L66.547 36.7083C66.5828 36.4472 66.7937 36.2505 67.0484 36.2505H71.6841C71.9826 36.2505 72.2173 36.5236 72.1855 36.8368L70.2079 56.3931C70.18 56.6621 69.9651 56.8669 69.7065 56.8669H64.7047C64.3943 56.8669 64.1555 56.5738 64.2073 56.2525L64.8598 49.3135C64.9076 48.9922 64.6728 48.6991 64.3624 48.6991H59.1418C58.8871 48.6991 58.6722 48.8998 58.6404 49.1649L57.8127 56.4011C57.7809 56.6661 57.566 56.8669 57.3113 56.8669H51.7723C51.4699 56.8669 51.2351 56.5858 51.2709 56.2726L53.5749 36.7163C53.6067 36.4513 53.8031 36.2545 54.0578 36.2545H54.8384Z" fill="url(#paint77_linear_196_1074)"/>
<path d="M71.6839 33.4392C73.7909 33.4392 75.1653 35.2977 74.9813 37.1193L74.9817 37.1197L73.0039 56.6761L73.0031 56.6826C72.8398 58.26 71.5269 59.6784 69.7066 59.6785H64.7046C62.5859 59.6785 61.2042 57.8034 61.4122 55.9585L61.8305 51.5104H61.2007L60.6046 56.7208L60.6029 56.7365C60.4158 58.2947 59.1056 59.6785 57.3114 59.6785H51.7723C49.6297 59.6785 48.2709 57.77 48.4787 55.9532L48.4795 55.9487L48.4799 55.9438L50.784 36.3874L50.7844 36.3841V36.3812C50.959 34.9282 52.1653 33.4434 54.0575 33.4433V36.2547L54.0107 36.2568C53.7792 36.2794 53.6046 36.4679 53.5747 36.7164L51.271 56.2727L51.2673 56.3311C51.2649 56.6008 51.4599 56.8339 51.7164 56.8638L51.7723 56.8671H57.3114L57.3586 56.8646C57.5765 56.8431 57.7571 56.6746 57.8045 56.4502L57.8127 56.4013L58.6404 49.1651C58.6702 48.9166 58.8609 48.7244 59.0945 48.7014L59.1417 48.6994H64.3626C64.6729 48.6995 64.9075 48.9926 64.8598 49.3138L64.2074 56.2526C64.1556 56.5739 64.3942 56.867 64.7046 56.8671H69.7066L69.7542 56.8646C69.9754 56.8427 70.1562 56.6708 70.2005 56.4428L70.2079 56.3931L72.1852 36.8367C72.217 36.5236 71.9823 36.2506 71.6839 36.2506V33.4392ZM67.0485 36.2506L67.0013 36.2531C66.7681 36.2756 66.5804 36.4638 66.5468 36.7086L65.5639 44.0331C65.528 44.2981 65.3132 44.4906 65.0626 44.4906H59.3724C59.0852 44.4906 58.861 44.2401 58.8703 43.944L59.4562 36.861C59.5009 36.5636 59.2938 36.2909 59.0152 36.258L58.9586 36.2547V33.4433C61.0507 33.4433 62.439 35.2826 62.2547 37.1197L61.8774 41.6796H63.0446L63.7615 36.3344L63.7623 36.3303L63.7627 36.3262C63.9718 34.8023 65.2631 33.4392 67.0485 33.4392V36.2506ZM54.8385 33.4433V36.2547H54.0575V33.4433H54.8385ZM58.9586 33.4433V36.2547H54.8385V33.4433H58.9586ZM71.6839 33.4392V36.2506H67.0485V33.4392H71.6839Z" fill="#040E74"/>
<path d="M91.9971 56.086L92.368 52.6674C92.3994 52.3582 92.1319 52.0932 91.7857 52.0852L81.1429 51.8925C80.8006 51.8845 80.533 51.6235 80.5605 51.3184L80.7612 49.1905C80.7887 48.9134 81.0484 48.7047 81.3553 48.7047L92.2342 48.7368C92.5411 48.7368 92.8008 48.528 92.8283 48.255L93.2139 44.6175C93.2454 44.3084 92.9739 44.0394 92.6277 44.0354L82.4137 43.9551C82.0635 43.9551 81.7881 43.682 81.8275 43.3689L82.1029 41.0121C82.1343 40.7431 82.3901 40.5384 82.697 40.5384H93.1077C93.4145 40.5384 93.6703 40.3296 93.7018 40.0566L94.0441 36.8326C94.0755 36.5195 93.8041 36.2505 93.45 36.2505H78.1723C76.9014 36.2505 75.788 37.0254 75.4929 38.1295C74.0804 43.3849 73.6476 48.8653 73.7696 54.466C73.7971 55.799 75.0247 56.8669 76.5237 56.8669H91.3726C91.6794 56.8669 91.9352 56.6582 91.9666 56.3852L91.9971 56.086Z" fill="url(#paint78_linear_196_1074)"/>
<path d="M93.4495 33.4392C95.1304 33.4392 97.0698 34.8278 96.84 37.114L96.496 40.3538L96.4948 40.3661L96.4931 40.3788C96.386 41.3081 95.9376 42.0345 95.3336 42.5368C95.8206 43.1433 96.1072 43.943 96.0095 44.9026L96.009 44.9083L96.0082 44.9141L95.6227 48.5515L95.6219 48.5511C95.5271 49.4566 95.1115 50.1624 94.5482 50.6614C94.998 51.2561 95.2577 52.0286 95.1637 52.9524L95.1624 52.9615L95.1616 52.9709L94.7909 56.3894L94.7905 56.389L94.7621 56.6699L94.7605 56.6888L94.758 56.7073C94.5373 58.6214 92.8711 59.6784 91.3724 59.6785H76.5236C73.8113 59.6785 71.0248 57.6848 70.9595 54.5243L70.9599 54.5239C70.8343 48.7479 71.2774 42.9885 72.7779 37.4035C73.4543 34.8728 75.8445 33.4392 78.172 33.4392V36.2506C76.9012 36.2506 75.7877 37.0256 75.4926 38.1297C74.0802 43.3852 73.6475 48.8656 73.7694 54.4664C73.7962 55.7575 74.9488 56.7998 76.3836 56.8638L76.5236 56.8671H91.3724C91.66 56.867 91.9027 56.6836 91.9579 56.4358L91.9665 56.3853L91.9969 56.0863L92.3677 52.6674C92.399 52.3583 92.1316 52.0934 91.7855 52.0854L81.1425 51.8928C80.8003 51.8847 80.5328 51.6237 80.5603 51.3186L80.7611 49.1906C80.7887 48.9136 81.0483 48.7047 81.3552 48.7047L92.2338 48.7367C92.5407 48.7367 92.8004 48.528 92.8279 48.2549L93.2134 44.6175C93.2448 44.3085 92.9737 44.0396 92.6275 44.0356L82.4133 43.955C82.0851 43.955 81.8224 43.7152 81.8233 43.4273L81.8274 43.3689L82.1025 41.0122C82.132 40.76 82.3588 40.5645 82.6399 40.5411L82.6966 40.5386H93.1075L93.1642 40.5362C93.4266 40.5139 93.6416 40.3384 93.693 40.1069L93.7016 40.0568L94.0436 36.8326C94.075 36.5195 93.8036 36.2506 93.4495 36.2506V33.4392ZM93.4495 33.4392V36.2506H78.172V33.4392H93.4495Z" fill="#040E74"/>
<path d="M131.242 17.3206H98.444L98.305 18.5522L93.6886 59.5384L93.4065 62.0379L95.6693 60.9393L108.047 54.9365L108.716 54.6119L108.817 53.8762L110.234 43.4346L120.468 54.7349L120.875 55.1844L121.484 55.1884L135.679 55.3033L138.829 55.3295L136.719 52.9892L126.197 41.314C128.744 41.1669 131.2 40.2134 133.181 38.5928C135.339 36.825 136.83 34.3456 137.38 31.6102L138.476 26.1577C138.913 23.9786 138.357 21.7432 136.951 20.0237C135.544 18.3043 133.463 17.3186 131.24 17.3186L131.242 17.3206Z" fill="#040E74"/>
<path d="M131.241 15.7405C133.936 15.7405 136.465 16.9381 138.172 19.0243C139.878 21.1096 140.554 23.826 140.023 26.4685L140.023 26.4689L138.927 31.9216C138.305 35.0144 136.62 37.8152 134.18 39.814L134.18 39.8146L133.181 38.5929C135.272 36.8803 136.736 34.4999 137.326 31.866L137.38 31.6103L138.476 26.1578C138.914 23.9788 138.357 21.7432 136.951 20.0238C135.544 18.3044 133.463 17.3187 131.241 17.3187L131.242 17.3208H98.4443L93.4068 62.038L108.717 54.6119L108.817 53.8763L110.234 43.4346L120.875 55.1845L121.484 55.1884L138.829 55.3295L126.197 41.3142C128.744 41.167 131.2 40.2135 133.181 38.5929L134.18 39.8146C132.732 40.9994 131.06 41.8677 129.281 42.3788L142.403 56.9377L135.666 56.8816L121.471 56.7669L120.172 56.7581L111.341 47.0082L110.381 54.0885L110.381 54.0904L110.165 55.6635L108.736 56.3566L108.736 56.3568L91.5176 64.7097L96.7376 18.3756V18.3752L97.0347 15.7423H127.433L127.431 15.7405H131.241Z" fill="#040E74"/>
<path d="M192.414 17.2581H162.29L162.145 18.5441L158.191 53.6362L158.012 55.2287L159.614 55.2488L170.884 55.3859L172.145 55.402L172.333 54.1543L173.892 43.8014L184.128 43.8276H186.54C189.343 43.8276 192.082 42.85 194.252 41.0721C196.422 39.2942 197.919 36.8027 198.473 34.0532L198.479 34.023L198.483 33.9928L199.716 26.1435C200.146 23.9564 199.583 21.7149 198.171 19.9894C196.752 18.2559 194.653 17.2621 192.412 17.2621L192.414 17.2581Z" fill="#040E74"/>
<path d="M194.966 15.6794C196.749 16.1677 198.191 17.5226 199.391 18.989L199.47 19.0874C201.115 21.1544 201.769 23.8159 201.27 26.412L200.044 34.2149L200.042 34.2315L200.036 34.282L200.026 34.3318L200.02 34.3621L200.019 34.3648C199.393 37.4708 197.703 40.2838 195.251 42.2928C192.798 44.3018 189.707 45.4055 186.54 45.4055H184.123L175.249 45.3827L173.5 56.9974L170.863 56.9636L159.594 56.8266H159.593L156.248 56.7845L160.576 18.3669L160.576 18.3667L160.879 15.6794H194.966ZM158.011 55.2283L172.144 55.4015L173.891 43.8011L184.128 43.8273H186.54C189.255 43.8272 191.91 42.9098 194.046 41.2361L194.251 41.0718C196.353 39.3494 197.824 36.9573 198.418 34.3098L198.472 34.0529L198.478 34.0226L198.482 33.9925L199.716 26.143C200.131 24.0243 199.617 21.8545 198.3 20.1522L198.17 19.9891C196.752 18.2556 194.652 17.2616 192.411 17.2616L192.413 17.2577H162.289L158.011 55.2283Z" fill="#040E74"/>
<path d="M158.644 17.3203H144.85L144.702 18.5398L140.423 53.767L140.233 55.3212H154.249L154.391 54.0936L158.465 18.8664L158.644 17.3203Z" fill="#040E74"/>
<path d="M160.416 15.7422L160.032 19.0476L160.032 19.0478L155.958 54.2737L155.958 54.2739L155.656 56.8995H138.451L138.857 53.5766L143.451 15.7422H160.416ZM140.233 55.3213H154.25L158.644 17.3204H144.85L140.233 55.3213Z" fill="#040E74"/>
<path d="M131.289 18.2495C135.077 18.2495 137.915 21.7181 137.167 25.4306L136.071 30.8855C135.063 35.8967 130.664 39.5004 125.554 39.5004H123.145L135.74 53.4774L121.538 53.3625L109.3 39.8493L107.482 53.2475L95.0984 59.253L99.7167 18.2495H131.289ZM111.725 26.566L110.967 35.3442H119.67C122.21 35.3442 124.322 33.3901 124.522 30.8573L124.776 27.6388C124.899 26.0638 123.655 24.7167 122.077 24.7167H109.766L111.729 26.5639L111.725 26.566Z" fill="url(#paint79_linear_196_1074)"/>
<path d="M131.289 18.2495C135.077 18.2495 137.915 21.7181 137.167 25.4306L136.071 30.8855C135.063 35.8968 130.664 39.5004 125.554 39.5004H123.145L135.74 53.4775L121.538 53.3625L109.3 39.8493L107.482 53.2476L95.0986 59.253L99.7169 18.2495H131.289ZM110.965 35.3442H119.668C122.208 35.3442 124.32 33.3902 124.52 30.8573L124.774 27.6388C124.897 26.0639 123.653 24.7168 122.075 24.7168H109.764L111.727 26.564L110.969 35.3422M131.289 16.8621H98.4771L98.338 18.0943L93.7197 59.0977L93.4375 61.5983L95.7013 60.4993L108.085 54.4938L108.754 54.1692L108.855 53.4331L110.272 42.9871L120.51 54.2922L120.918 54.7419L121.526 54.7459L135.728 54.8609L138.879 54.8871L136.768 52.5458L126.241 40.8657C128.789 40.7185 131.247 39.7646 133.228 38.1433C135.387 36.3747 136.879 33.8943 137.429 31.1578L138.526 25.7029C138.963 23.5229 138.407 21.2865 137 19.5664C135.593 17.8462 133.511 16.8601 131.287 16.8601L131.289 16.8621ZM113.157 26.1042H122.075C122.448 26.1042 122.792 26.2554 123.044 26.5297C123.298 26.8039 123.421 27.1589 123.391 27.5319L123.139 30.7504C122.998 32.5492 121.474 33.9588 119.67 33.9588H112.479L113.108 26.687L113.159 26.1062L113.157 26.1042Z" fill="url(#paint80_linear_196_1074)"/>
<path d="M192.486 18.2496C196.274 18.2496 199.112 21.7181 198.364 25.4307L197.125 33.3115C196.117 38.3228 191.718 41.9264 186.608 41.9264H184.199L172.709 41.8962L170.963 53.4916L159.688 53.3545L163.643 18.2476H192.486V18.2496ZM174.422 26.566L173.594 35.3443H181.865C184.64 35.3443 186.949 33.3902 187.166 30.8573L187.442 27.6388C187.578 26.0639 186.219 24.7168 184.493 24.7168H172.279L174.424 26.564L174.422 26.566Z" fill="url(#paint81_linear_196_1074)"/>
<path d="M192.486 18.2495C196.274 18.2495 199.112 21.718 198.364 25.4306L197.125 33.3115C196.117 38.3227 191.718 41.9263 186.608 41.9263H184.199L172.709 41.8961L170.963 53.4915L159.688 53.3544L163.643 18.2475H192.486M173.594 35.3442H181.865C184.641 35.3442 186.949 33.3901 187.166 30.8573L187.443 27.6388C187.578 26.0638 186.219 24.7167 184.493 24.7167H172.279L174.424 26.5639L173.596 35.3422M192.486 16.7996H162.349L162.204 18.0861L158.249 53.1931L158.07 54.7862L159.672 54.8064L170.947 54.9435L172.209 54.9596L172.396 53.7113L173.957 43.3541L184.197 43.3803H186.61C189.414 43.3803 192.154 42.4023 194.325 40.6236C196.496 38.845 197.993 36.3525 198.548 33.6018L198.554 33.5716L198.558 33.5413L199.792 25.6887C200.221 23.5007 199.659 21.2583 198.245 19.5321C196.826 17.7978 194.726 16.8036 192.484 16.8036L192.486 16.7996ZM175.914 26.1667H184.491C184.963 26.1667 185.4 26.3481 185.691 26.6648C185.85 26.8382 186.031 27.1245 185.997 27.5137L185.721 30.7322C185.568 32.5048 183.874 33.8942 181.865 33.8942H175.186L175.866 26.701L175.916 26.1667H175.914Z" fill="url(#paint82_linear_196_1074)"/>
<path d="M146.13 18.2495H157.147L153.071 53.4916H141.848L146.13 18.2495Z" fill="url(#paint83_linear_196_1074)"/>
<path d="M157.147 18.2495L153.07 53.4915H141.848L146.13 18.2495H157.147ZM158.703 16.8621H144.902L144.755 18.0821L140.473 53.3241L140.284 54.8789H154.306L154.447 53.6508L158.523 18.4088L158.703 16.8621Z" fill="#F7FEFE"/>
<defs>
<linearGradient id="paint0_linear_196_1074" x1="29.8531" y1="6.52544" x2="29.9173" y2="6.98847" gradientUnits="userSpaceOnUse">
<stop offset="1" stop-color="#4BE6FC"/>
</linearGradient>
<linearGradient id="paint1_linear_196_1074" x1="45.9899" y1="1.51822" x2="46.3694" y2="4.25551" gradientUnits="userSpaceOnUse">
<stop stop-color="#C836DF"/>
<stop offset="0.350962" stop-color="#704BF9"/>
<stop offset="0.677885" stop-color="#1F4CF5"/>
<stop offset="1" stop-color="#4BE6FC"/>
</linearGradient>
<linearGradient id="paint2_linear_196_1074" x1="47.0476" y1="1.37271" x2="47.427" y2="4.11001" gradientUnits="userSpaceOnUse">
<stop stop-color="#C836DF"/>
<stop offset="0.350962" stop-color="#704BF9"/>
<stop offset="0.677885" stop-color="#1F4CF5"/>
<stop offset="1" stop-color="#4BE6FC"/>
</linearGradient>
<linearGradient id="paint3_linear_196_1074" x1="44.9321" y1="1.66641" x2="45.3116" y2="4.40371" gradientUnits="userSpaceOnUse">
<stop stop-color="#C836DF"/>
<stop offset="0.350962" stop-color="#704BF9"/>
<stop offset="0.677885" stop-color="#1F4CF5"/>
<stop offset="1" stop-color="#4BE6FC"/>
</linearGradient>
<linearGradient id="paint4_linear_196_1074" x1="43.8728" y1="1.81216" x2="44.2522" y2="4.54946" gradientUnits="userSpaceOnUse">
<stop stop-color="#C836DF"/>
<stop offset="0.350962" stop-color="#704BF9"/>
<stop offset="0.677885" stop-color="#1F4CF5"/>
<stop offset="1" stop-color="#4BE6FC"/>
</linearGradient>
<linearGradient id="paint5_linear_196_1074" x1="42.8137" y1="1.96035" x2="43.1932" y2="4.69765" gradientUnits="userSpaceOnUse">
<stop stop-color="#C836DF"/>
<stop offset="0.350962" stop-color="#704BF9"/>
<stop offset="0.677885" stop-color="#1F4CF5"/>
<stop offset="1" stop-color="#4BE6FC"/>
</linearGradient>
<linearGradient id="paint6_linear_196_1074" x1="40.6965" y1="2.25235" x2="41.076" y2="4.98964" gradientUnits="userSpaceOnUse">
<stop stop-color="#C836DF"/>
<stop offset="0.350962" stop-color="#704BF9"/>
<stop offset="0.677885" stop-color="#1F4CF5"/>
<stop offset="1" stop-color="#4BE6FC"/>
</linearGradient>
<linearGradient id="paint7_linear_196_1074" x1="41.7558" y1="2.10635" x2="42.1353" y2="4.84365" gradientUnits="userSpaceOnUse">
<stop stop-color="#C836DF"/>
<stop offset="0.350962" stop-color="#704BF9"/>
<stop offset="0.677885" stop-color="#1F4CF5"/>
<stop offset="1" stop-color="#4BE6FC"/>
</linearGradient>
<linearGradient id="paint8_linear_196_1074" x1="39.6386" y1="2.39981" x2="40.0181" y2="5.13711" gradientUnits="userSpaceOnUse">
<stop stop-color="#C836DF"/>
<stop offset="0.350962" stop-color="#704BF9"/>
<stop offset="0.677885" stop-color="#1F4CF5"/>
<stop offset="1" stop-color="#4BE6FC"/>
</linearGradient>
<linearGradient id="paint9_linear_196_1074" x1="38.5812" y1="2.54776" x2="38.9607" y2="5.28505" gradientUnits="userSpaceOnUse">
<stop stop-color="#C836DF"/>
<stop offset="0.350962" stop-color="#704BF9"/>
<stop offset="0.677885" stop-color="#1F4CF5"/>
<stop offset="1" stop-color="#4BE6FC"/>
</linearGradient>
<linearGradient id="paint10_linear_196_1074" x1="37.5217" y1="2.6918" x2="37.9012" y2="5.4291" gradientUnits="userSpaceOnUse">
<stop stop-color="#C836DF"/>
<stop offset="0.350962" stop-color="#704BF9"/>
<stop offset="0.677885" stop-color="#1F4CF5"/>
<stop offset="1" stop-color="#4BE6FC"/>
</linearGradient>
<linearGradient id="paint11_linear_196_1074" x1="35.4028" y1="2.9877" x2="35.7823" y2="5.725" gradientUnits="userSpaceOnUse">
<stop stop-color="#C836DF"/>
<stop offset="0.350962" stop-color="#704BF9"/>
<stop offset="0.677885" stop-color="#1F4CF5"/>
<stop offset="1" stop-color="#4BE6FC"/>
</linearGradient>
<linearGradient id="paint12_linear_196_1074" x1="36.4643" y1="2.83951" x2="36.8438" y2="5.5768" gradientUnits="userSpaceOnUse">
<stop stop-color="#C836DF"/>
<stop offset="0.350962" stop-color="#704BF9"/>
<stop offset="0.677885" stop-color="#1F4CF5"/>
<stop offset="1" stop-color="#4BE6FC"/>
</linearGradient>
<linearGradient id="paint13_linear_196_1074" x1="34.3452" y1="3.13369" x2="34.7246" y2="5.87099" gradientUnits="userSpaceOnUse">
<stop stop-color="#C836DF"/>
<stop offset="0.350962" stop-color="#704BF9"/>
<stop offset="0.677885" stop-color="#1F4CF5"/>
<stop offset="1" stop-color="#4BE6FC"/>
</linearGradient>
<linearGradient id="paint14_linear_196_1074" x1="33.2875" y1="3.27945" x2="33.667" y2="6.01674" gradientUnits="userSpaceOnUse">
<stop stop-color="#C836DF"/>
<stop offset="0.350962" stop-color="#704BF9"/>
<stop offset="0.677885" stop-color="#1F4CF5"/>
<stop offset="1" stop-color="#4BE6FC"/>
</linearGradient>
<linearGradient id="paint15_linear_196_1074" x1="32.2282" y1="3.4274" x2="32.6077" y2="6.16469" gradientUnits="userSpaceOnUse">
<stop stop-color="#C836DF"/>
<stop offset="0.350962" stop-color="#704BF9"/>
<stop offset="0.677885" stop-color="#1F4CF5"/>
<stop offset="1" stop-color="#4BE6FC"/>
</linearGradient>
<linearGradient id="paint16_linear_196_1074" x1="30.113" y1="3.72134" x2="30.4925" y2="6.45864" gradientUnits="userSpaceOnUse">
<stop stop-color="#C836DF"/>
<stop offset="0.350962" stop-color="#704BF9"/>
<stop offset="0.677885" stop-color="#1F4CF5"/>
<stop offset="1" stop-color="#4BE6FC"/>
</linearGradient>
<linearGradient id="paint17_linear_196_1074" x1="31.1706" y1="3.57315" x2="31.5501" y2="6.31045" gradientUnits="userSpaceOnUse">
<stop stop-color="#C836DF"/>
<stop offset="0.350962" stop-color="#704BF9"/>
<stop offset="0.677885" stop-color="#1F4CF5"/>
<stop offset="1" stop-color="#4BE6FC"/>
</linearGradient>
<linearGradient id="paint18_linear_196_1074" x1="29.0534" y1="3.86709" x2="29.4329" y2="6.60439" gradientUnits="userSpaceOnUse">
<stop stop-color="#C836DF"/>
<stop offset="0.350962" stop-color="#704BF9"/>
<stop offset="0.677885" stop-color="#1F4CF5"/>
<stop offset="1" stop-color="#4BE6FC"/>
</linearGradient>
<linearGradient id="paint19_linear_196_1074" x1="27.9938" y1="4.01333" x2="28.3733" y2="6.75063" gradientUnits="userSpaceOnUse">
<stop stop-color="#C836DF"/>
<stop offset="0.350962" stop-color="#704BF9"/>
<stop offset="0.677885" stop-color="#1F4CF5"/>
<stop offset="1" stop-color="#4BE6FC"/>
</linearGradient>
<linearGradient id="paint20_linear_196_1074" x1="26.9345" y1="4.16128" x2="27.314" y2="6.89858" gradientUnits="userSpaceOnUse">
<stop stop-color="#C836DF"/>
<stop offset="0.350962" stop-color="#704BF9"/>
<stop offset="0.677885" stop-color="#1F4CF5"/>
<stop offset="1" stop-color="#4BE6FC"/>
</linearGradient>
<linearGradient id="paint21_linear_196_1074" x1="24.76" y1="4.46084" x2="25.1394" y2="7.19814" gradientUnits="userSpaceOnUse">
<stop stop-color="#C836DF"/>
<stop offset="0.350962" stop-color="#704BF9"/>
<stop offset="0.677885" stop-color="#1F4CF5"/>
<stop offset="1" stop-color="#4BE6FC"/>
</linearGradient>
<linearGradient id="paint22_linear_196_1074" x1="25.8178" y1="4.3168" x2="26.1973" y2="7.0541" gradientUnits="userSpaceOnUse">
<stop stop-color="#C836DF"/>
<stop offset="0.350962" stop-color="#704BF9"/>
<stop offset="0.677885" stop-color="#1F4CF5"/>
<stop offset="1" stop-color="#4BE6FC"/>
</linearGradient>
<linearGradient id="paint23_linear_196_1074" x1="23.7006" y1="4.60855" x2="24.0801" y2="7.34585" gradientUnits="userSpaceOnUse">
<stop stop-color="#C836DF"/>
<stop offset="0.350962" stop-color="#704BF9"/>
<stop offset="0.677885" stop-color="#1F4CF5"/>
<stop offset="1" stop-color="#4BE6FC"/>
</linearGradient>
<linearGradient id="paint24_linear_196_1074" x1="22.643" y1="4.7565" x2="23.0225" y2="7.4938" gradientUnits="userSpaceOnUse">
<stop stop-color="#C836DF"/>
<stop offset="0.350962" stop-color="#704BF9"/>
<stop offset="0.677885" stop-color="#1F4CF5"/>
<stop offset="1" stop-color="#4BE6FC"/>
</linearGradient>
<linearGradient id="paint25_linear_196_1074" x1="21.5856" y1="4.90249" x2="21.9651" y2="7.63979" gradientUnits="userSpaceOnUse">
<stop stop-color="#C836DF"/>
<stop offset="0.350962" stop-color="#704BF9"/>
<stop offset="0.677885" stop-color="#1F4CF5"/>
<stop offset="1" stop-color="#4BE6FC"/>
</linearGradient>
<linearGradient id="paint26_linear_196_1074" x1="19.331" y1="5.21499" x2="19.7105" y2="7.95229" gradientUnits="userSpaceOnUse">
<stop stop-color="#C836DF"/>
<stop offset="0.350962" stop-color="#704BF9"/>
<stop offset="0.677885" stop-color="#1F4CF5"/>
<stop offset="1" stop-color="#4BE6FC"/>
</linearGradient>
<linearGradient id="paint27_linear_196_1074" x1="20.3886" y1="5.069" x2="20.7681" y2="7.8063" gradientUnits="userSpaceOnUse">
<stop stop-color="#C836DF"/>
<stop offset="0.350962" stop-color="#704BF9"/>
<stop offset="0.677885" stop-color="#1F4CF5"/>
<stop offset="1" stop-color="#4BE6FC"/>
</linearGradient>
<linearGradient id="paint28_linear_196_1074" x1="18.2734" y1="5.3627" x2="18.6529" y2="8.1" gradientUnits="userSpaceOnUse">
<stop stop-color="#C836DF"/>
<stop offset="0.350962" stop-color="#704BF9"/>
<stop offset="0.677885" stop-color="#1F4CF5"/>
<stop offset="1" stop-color="#4BE6FC"/>
</linearGradient>
<linearGradient id="paint29_linear_196_1074" x1="17.2138" y1="5.50894" x2="17.5933" y2="8.24624" gradientUnits="userSpaceOnUse">
<stop stop-color="#C836DF"/>
<stop offset="0.350962" stop-color="#704BF9"/>
<stop offset="0.677885" stop-color="#1F4CF5"/>
<stop offset="1" stop-color="#4BE6FC"/>
</linearGradient>
<linearGradient id="paint30_linear_196_1074" x1="16.1562" y1="5.65469" x2="16.5357" y2="8.39199" gradientUnits="userSpaceOnUse">
<stop stop-color="#C836DF"/>
<stop offset="0.350962" stop-color="#704BF9"/>
<stop offset="0.677885" stop-color="#1F4CF5"/>
<stop offset="1" stop-color="#4BE6FC"/>
</linearGradient>
<linearGradient id="paint31_linear_196_1074" x1="13.8867" y1="5.96914" x2="14.2662" y2="8.70644" gradientUnits="userSpaceOnUse">
<stop stop-color="#C836DF"/>
<stop offset="0.350962" stop-color="#704BF9"/>
<stop offset="0.677885" stop-color="#1F4CF5"/>
<stop offset="1" stop-color="#4BE6FC"/>
</linearGradient>
<linearGradient id="paint32_linear_196_1074" x1="15.0205" y1="5.81289" x2="15.3999" y2="8.55019" gradientUnits="userSpaceOnUse">
<stop stop-color="#C836DF"/>
<stop offset="0.350962" stop-color="#704BF9"/>
<stop offset="0.677885" stop-color="#1F4CF5"/>
<stop offset="1" stop-color="#4BE6FC"/>
</linearGradient>
<linearGradient id="paint33_linear_196_1074" x1="12.8615" y1="6.11245" x2="13.241" y2="8.84975" gradientUnits="userSpaceOnUse">
<stop stop-color="#C836DF"/>
<stop offset="0.350962" stop-color="#704BF9"/>
<stop offset="0.677885" stop-color="#1F4CF5"/>
<stop offset="1" stop-color="#4BE6FC"/>
</linearGradient>
<linearGradient id="paint34_linear_196_1074" x1="11.8935" y1="6.24624" x2="12.273" y2="8.98354" gradientUnits="userSpaceOnUse">
<stop stop-color="#C836DF"/>
<stop offset="0.350962" stop-color="#704BF9"/>
<stop offset="0.677885" stop-color="#1F4CF5"/>
<stop offset="1" stop-color="#4BE6FC"/>
</linearGradient>
<linearGradient id="paint35_linear_196_1074" x1="36.2276" y1="63.9059" x2="36.1718" y2="63.4418" gradientUnits="userSpaceOnUse">
<stop offset="1" stop-color="#C836DF"/>
</linearGradient>
<linearGradient id="paint36_linear_196_1074" x1="20.0027" y1="68.6207" x2="19.6729" y2="65.877" gradientUnits="userSpaceOnUse">
<stop stop-color="#4BE6FC"/>
<stop offset="0.302885" stop-color="#1F4CF5"/>
<stop offset="0.658654" stop-color="#704BF9"/>
<stop offset="1" stop-color="#C836DF"/>
</linearGradient>
<linearGradient id="paint37_linear_196_1074" x1="18.9414" y1="68.7487" x2="18.6117" y2="66.0049" gradientUnits="userSpaceOnUse">
<stop stop-color="#4BE6FC"/>
<stop offset="0.302885" stop-color="#1F4CF5"/>
<stop offset="0.658654" stop-color="#704BF9"/>
<stop offset="1" stop-color="#C836DF"/>
</linearGradient>
<linearGradient id="paint38_linear_196_1074" x1="21.0617" y1="68.4913" x2="20.732" y2="65.7476" gradientUnits="userSpaceOnUse">
<stop stop-color="#4BE6FC"/>
<stop offset="0.302885" stop-color="#1F4CF5"/>
<stop offset="0.658654" stop-color="#704BF9"/>
<stop offset="1" stop-color="#C836DF"/>
</linearGradient>
<linearGradient id="paint39_linear_196_1074" x1="22.1233" y1="68.3636" x2="21.7935" y2="65.6199" gradientUnits="userSpaceOnUse">
<stop stop-color="#4BE6FC"/>
<stop offset="0.302885" stop-color="#1F4CF5"/>
<stop offset="0.658654" stop-color="#704BF9"/>
<stop offset="1" stop-color="#C836DF"/>
</linearGradient>
<linearGradient id="paint40_linear_196_1074" x1="23.1848" y1="68.236" x2="22.8551" y2="65.4922" gradientUnits="userSpaceOnUse">
<stop stop-color="#4BE6FC"/>
<stop offset="0.302885" stop-color="#1F4CF5"/>
<stop offset="0.658654" stop-color="#704BF9"/>
<stop offset="1" stop-color="#C836DF"/>
</linearGradient>
<linearGradient id="paint41_linear_196_1074" x1="25.3078" y1="67.9825" x2="24.9781" y2="65.2388" gradientUnits="userSpaceOnUse">
<stop stop-color="#4BE6FC"/>
<stop offset="0.302885" stop-color="#1F4CF5"/>
<stop offset="0.658654" stop-color="#704BF9"/>
<stop offset="1" stop-color="#C836DF"/>
</linearGradient>
<linearGradient id="paint42_linear_196_1074" x1="24.2463" y1="68.1085" x2="23.9166" y2="65.3648" gradientUnits="userSpaceOnUse">
<stop stop-color="#4BE6FC"/>
<stop offset="0.302885" stop-color="#1F4CF5"/>
<stop offset="0.658654" stop-color="#704BF9"/>
<stop offset="1" stop-color="#C836DF"/>
</linearGradient>
<linearGradient id="paint43_linear_196_1074" x1="26.3672" y1="67.8549" x2="26.0374" y2="65.1111" gradientUnits="userSpaceOnUse">
<stop stop-color="#4BE6FC"/>
<stop offset="0.302885" stop-color="#1F4CF5"/>
<stop offset="0.658654" stop-color="#704BF9"/>
<stop offset="1" stop-color="#C836DF"/>
</linearGradient>
<linearGradient id="paint44_linear_196_1074" x1="27.4287" y1="67.7272" x2="27.099" y2="64.9834" gradientUnits="userSpaceOnUse">
<stop stop-color="#4BE6FC"/>
<stop offset="0.302885" stop-color="#1F4CF5"/>
<stop offset="0.658654" stop-color="#704BF9"/>
<stop offset="1" stop-color="#C836DF"/>
</linearGradient>
<linearGradient id="paint45_linear_196_1074" x1="28.4902" y1="67.5995" x2="28.1605" y2="64.8557" gradientUnits="userSpaceOnUse">
<stop stop-color="#4BE6FC"/>
<stop offset="0.302885" stop-color="#1F4CF5"/>
<stop offset="0.658654" stop-color="#704BF9"/>
<stop offset="1" stop-color="#C836DF"/>
</linearGradient>
<linearGradient id="paint46_linear_196_1074" x1="30.6128" y1="67.3441" x2="30.283" y2="64.6004" gradientUnits="userSpaceOnUse">
<stop stop-color="#4BE6FC"/>
<stop offset="0.302885" stop-color="#1F4CF5"/>
<stop offset="0.658654" stop-color="#704BF9"/>
<stop offset="1" stop-color="#C836DF"/>
</linearGradient>
<linearGradient id="paint47_linear_196_1074" x1="29.5515" y1="67.4718" x2="29.2218" y2="64.7281" gradientUnits="userSpaceOnUse">
<stop stop-color="#4BE6FC"/>
<stop offset="0.302885" stop-color="#1F4CF5"/>
<stop offset="0.658654" stop-color="#704BF9"/>
<stop offset="1" stop-color="#C836DF"/>
</linearGradient>
<linearGradient id="paint48_linear_196_1074" x1="31.6723" y1="67.2184" x2="31.3426" y2="64.4746" gradientUnits="userSpaceOnUse">
<stop stop-color="#4BE6FC"/>
<stop offset="0.302885" stop-color="#1F4CF5"/>
<stop offset="0.658654" stop-color="#704BF9"/>
<stop offset="1" stop-color="#C836DF"/>
</linearGradient>
<linearGradient id="paint49_linear_196_1074" x1="32.7358" y1="67.0907" x2="32.4061" y2="64.347" gradientUnits="userSpaceOnUse">
<stop stop-color="#4BE6FC"/>
<stop offset="0.302885" stop-color="#1F4CF5"/>
<stop offset="0.658654" stop-color="#704BF9"/>
<stop offset="1" stop-color="#C836DF"/>
</linearGradient>
<linearGradient id="paint50_linear_196_1074" x1="33.7954" y1="66.9633" x2="33.4657" y2="64.2195" gradientUnits="userSpaceOnUse">
<stop stop-color="#4BE6FC"/>
<stop offset="0.302885" stop-color="#1F4CF5"/>
<stop offset="0.658654" stop-color="#704BF9"/>
<stop offset="1" stop-color="#C836DF"/>
</linearGradient>
<linearGradient id="paint51_linear_196_1074" x1="35.9179" y1="66.7057" x2="35.5882" y2="63.9619" gradientUnits="userSpaceOnUse">
<stop stop-color="#4BE6FC"/>
<stop offset="0.302885" stop-color="#1F4CF5"/>
<stop offset="0.658654" stop-color="#704BF9"/>
<stop offset="1" stop-color="#C836DF"/>
</linearGradient>
<linearGradient id="paint52_linear_196_1074" x1="34.8564" y1="66.8334" x2="34.5267" y2="64.0896" gradientUnits="userSpaceOnUse">
<stop stop-color="#4BE6FC"/>
<stop offset="0.302885" stop-color="#1F4CF5"/>
<stop offset="0.658654" stop-color="#704BF9"/>
<stop offset="1" stop-color="#C836DF"/>
</linearGradient>
<linearGradient id="paint53_linear_196_1074" x1="36.9792" y1="66.5802" x2="36.6495" y2="63.8365" gradientUnits="userSpaceOnUse">
<stop stop-color="#4BE6FC"/>
<stop offset="0.302885" stop-color="#1F4CF5"/>
<stop offset="0.658654" stop-color="#704BF9"/>
<stop offset="1" stop-color="#C836DF"/>
</linearGradient>
<linearGradient id="paint54_linear_196_1074" x1="38.0405" y1="66.452" x2="37.7108" y2="63.7083" gradientUnits="userSpaceOnUse">
<stop stop-color="#4BE6FC"/>
<stop offset="0.302885" stop-color="#1F4CF5"/>
<stop offset="0.658654" stop-color="#704BF9"/>
<stop offset="1" stop-color="#C836DF"/>
</linearGradient>
<linearGradient id="paint55_linear_196_1074" x1="39.1001" y1="66.3248" x2="38.7704" y2="63.5811" gradientUnits="userSpaceOnUse">
<stop stop-color="#4BE6FC"/>
<stop offset="0.302885" stop-color="#1F4CF5"/>
<stop offset="0.658654" stop-color="#704BF9"/>
<stop offset="1" stop-color="#C836DF"/>
</linearGradient>
<linearGradient id="paint56_linear_196_1074" x1="41.2812" y1="66.0643" x2="40.9515" y2="63.3206" gradientUnits="userSpaceOnUse">
<stop stop-color="#4BE6FC"/>
<stop offset="0.302885" stop-color="#1F4CF5"/>
<stop offset="0.658654" stop-color="#704BF9"/>
<stop offset="1" stop-color="#C836DF"/>
</linearGradient>
<linearGradient id="paint57_linear_196_1074" x1="40.2197" y1="66.1903" x2="39.89" y2="63.4466" gradientUnits="userSpaceOnUse">
<stop stop-color="#4BE6FC"/>
<stop offset="0.302885" stop-color="#1F4CF5"/>
<stop offset="0.658654" stop-color="#704BF9"/>
<stop offset="1" stop-color="#C836DF"/>
</linearGradient>
<linearGradient id="paint58_linear_196_1074" x1="42.3425" y1="65.9349" x2="42.0128" y2="63.1912" gradientUnits="userSpaceOnUse">
<stop stop-color="#4BE6FC"/>
<stop offset="0.302885" stop-color="#1F4CF5"/>
<stop offset="0.658654" stop-color="#704BF9"/>
<stop offset="1" stop-color="#C836DF"/>
</linearGradient>
<linearGradient id="paint59_linear_196_1074" x1="43.4038" y1="65.807" x2="43.0741" y2="63.0633" gradientUnits="userSpaceOnUse">
<stop stop-color="#4BE6FC"/>
<stop offset="0.302885" stop-color="#1F4CF5"/>
<stop offset="0.658654" stop-color="#704BF9"/>
<stop offset="1" stop-color="#C836DF"/>
</linearGradient>
<linearGradient id="paint60_linear_196_1074" x1="44.4634" y1="65.6796" x2="44.1336" y2="62.9358" gradientUnits="userSpaceOnUse">
<stop stop-color="#4BE6FC"/>
<stop offset="0.302885" stop-color="#1F4CF5"/>
<stop offset="0.658654" stop-color="#704BF9"/>
<stop offset="1" stop-color="#C836DF"/>
</linearGradient>
<linearGradient id="paint61_linear_196_1074" x1="46.7224" y1="65.4071" x2="46.3927" y2="62.6634" gradientUnits="userSpaceOnUse">
<stop stop-color="#4BE6FC"/>
<stop offset="0.302885" stop-color="#1F4CF5"/>
<stop offset="0.658654" stop-color="#704BF9"/>
<stop offset="1" stop-color="#C836DF"/>
</linearGradient>
<linearGradient id="paint62_linear_196_1074" x1="45.6614" y1="65.5365" x2="45.3316" y2="62.7928" gradientUnits="userSpaceOnUse">
<stop stop-color="#4BE6FC"/>
<stop offset="0.302885" stop-color="#1F4CF5"/>
<stop offset="0.658654" stop-color="#704BF9"/>
<stop offset="1" stop-color="#C836DF"/>
</linearGradient>
<linearGradient id="paint63_linear_196_1074" x1="47.7839" y1="65.2814" x2="47.4542" y2="62.5376" gradientUnits="userSpaceOnUse">
<stop stop-color="#4BE6FC"/>
<stop offset="0.302885" stop-color="#1F4CF5"/>
<stop offset="0.658654" stop-color="#704BF9"/>
<stop offset="1" stop-color="#C836DF"/>
</linearGradient>
<linearGradient id="paint64_linear_196_1074" x1="48.8454" y1="65.1534" x2="48.5157" y2="62.4097" gradientUnits="userSpaceOnUse">
<stop stop-color="#4BE6FC"/>
<stop offset="0.302885" stop-color="#1F4CF5"/>
<stop offset="0.658654" stop-color="#704BF9"/>
<stop offset="1" stop-color="#C836DF"/>
</linearGradient>
<linearGradient id="paint65_linear_196_1074" x1="49.907" y1="65.026" x2="49.5772" y2="62.2823" gradientUnits="userSpaceOnUse">
<stop stop-color="#4BE6FC"/>
<stop offset="0.302885" stop-color="#1F4CF5"/>
<stop offset="0.658654" stop-color="#704BF9"/>
<stop offset="1" stop-color="#C836DF"/>
</linearGradient>
<linearGradient id="paint66_linear_196_1074" x1="52.1802" y1="64.7513" x2="51.8504" y2="62.0076" gradientUnits="userSpaceOnUse">
<stop stop-color="#4BE6FC"/>
<stop offset="0.302885" stop-color="#1F4CF5"/>
<stop offset="0.658654" stop-color="#704BF9"/>
<stop offset="1" stop-color="#C836DF"/>
</linearGradient>
<linearGradient id="paint67_linear_196_1074" x1="51.0425" y1="64.8893" x2="50.7127" y2="62.1455" gradientUnits="userSpaceOnUse">
<stop stop-color="#4BE6FC"/>
<stop offset="0.302885" stop-color="#1F4CF5"/>
<stop offset="0.658654" stop-color="#704BF9"/>
<stop offset="1" stop-color="#C836DF"/>
</linearGradient>
<linearGradient id="paint68_linear_196_1074" x1="53.2055" y1="64.6293" x2="52.8758" y2="61.8855" gradientUnits="userSpaceOnUse">
<stop stop-color="#4BE6FC"/>
<stop offset="0.302885" stop-color="#1F4CF5"/>
<stop offset="0.658654" stop-color="#704BF9"/>
<stop offset="1" stop-color="#C836DF"/>
</linearGradient>
<linearGradient id="paint69_linear_196_1074" x1="54.1787" y1="64.5143" x2="53.849" y2="61.7705" gradientUnits="userSpaceOnUse">
<stop stop-color="#4BE6FC"/>
<stop offset="0.302885" stop-color="#1F4CF5"/>
<stop offset="0.658654" stop-color="#704BF9"/>
<stop offset="1" stop-color="#C836DF"/>
</linearGradient>
<linearGradient id="paint70_linear_196_1074" x1="33.2007" y1="5.67041" x2="33.2007" y2="64.3166" gradientUnits="userSpaceOnUse">
<stop stop-color="#4DEBFD"/>
<stop offset="0.336538" stop-color="#1E4AF5"/>
<stop offset="0.653846" stop-color="#943BEB"/>
<stop offset="1" stop-color="#C836DF"/>
</linearGradient>
<linearGradient id="paint71_linear_196_1074" x1="4.58838" y1="30.8386" x2="41.0915" y2="30.8386" gradientUnits="userSpaceOnUse">
<stop stop-color="#93EDFF"/>
<stop offset="1" stop-color="#82CAFF"/>
</linearGradient>
<linearGradient id="paint72_linear_196_1074" x1="39.0695" y1="13.3604" x2="38.1032" y2="28.2955" gradientUnits="userSpaceOnUse">
<stop stop-color="#F7FEFE"/>
<stop offset="0.495192" stop-color="#EBFEFE"/>
<stop offset="1" stop-color="#D7FEFF"/>
</linearGradient>
<linearGradient id="paint73_linear_196_1074" x1="56.8371" y1="13.3604" x2="55.8707" y2="28.2955" gradientUnits="userSpaceOnUse">
<stop stop-color="#F7FEFE"/>
<stop offset="0.495192" stop-color="#EBFEFE"/>
<stop offset="1" stop-color="#D7FEFF"/>
</linearGradient>
<linearGradient id="paint74_linear_196_1074" x1="73.4511" y1="13.3604" x2="72.4848" y2="28.2955" gradientUnits="userSpaceOnUse">
<stop stop-color="#F7FEFE"/>
<stop offset="0.495192" stop-color="#EBFEFE"/>
<stop offset="1" stop-color="#D7FEFF"/>
</linearGradient>
<linearGradient id="paint75_linear_196_1074" x1="89.6035" y1="13.3604" x2="88.6371" y2="28.2955" gradientUnits="userSpaceOnUse">
<stop stop-color="#F7FEFE"/>
<stop offset="0.495192" stop-color="#EBFEFE"/>
<stop offset="1" stop-color="#D7FEFF"/>
</linearGradient>
<linearGradient id="paint76_linear_196_1074" x1="42.059" y1="30.5585" x2="40.7513" y2="50.7691" gradientUnits="userSpaceOnUse">
<stop stop-color="#F7FEFE"/>
<stop offset="0.495192" stop-color="#EBFEFE"/>
<stop offset="1" stop-color="#D7FEFF"/>
</linearGradient>
<linearGradient id="paint77_linear_196_1074" x1="62.5234" y1="30.5585" x2="61.235" y2="50.7716" gradientUnits="userSpaceOnUse">
<stop stop-color="#F7FEFE"/>
<stop offset="0.495192" stop-color="#EBFEFE"/>
<stop offset="1" stop-color="#D7FEFF"/>
</linearGradient>
<linearGradient id="paint78_linear_196_1074" x1="84.6701" y1="30.5585" x2="83.3424" y2="50.7665" gradientUnits="userSpaceOnUse">
<stop stop-color="#F7FEFE"/>
<stop offset="0.495192" stop-color="#EBFEFE"/>
<stop offset="1" stop-color="#D7FEFF"/>
</linearGradient>
<linearGradient id="paint79_linear_196_1074" x1="116.476" y1="18.4613" x2="116.037" y2="54.4978" gradientUnits="userSpaceOnUse">
<stop stop-color="#4FF3FD"/>
<stop offset="0.31" stop-color="#1834F4"/>
<stop offset="0.71" stop-color="#8350FA"/>
<stop offset="1" stop-color="#C836DF"/>
</linearGradient>
<linearGradient id="paint80_linear_196_1074" x1="93.4395" y1="39.2302" x2="138.879" y2="39.2302" gradientUnits="userSpaceOnUse">
<stop stop-color="#F7FEFE"/>
<stop offset="1" stop-color="#D7FEFF"/>
</linearGradient>
<linearGradient id="paint81_linear_196_1074" x1="179.337" y1="18.425" x2="178.959" y2="49.2971" gradientUnits="userSpaceOnUse">
<stop stop-color="#4FF3FD"/>
<stop offset="0.31" stop-color="#1834F4"/>
<stop offset="0.71" stop-color="#8350FA"/>
<stop offset="1" stop-color="#C836DF"/>
</linearGradient>
<linearGradient id="paint82_linear_196_1074" x1="158.07" y1="35.8766" x2="199.933" y2="35.8766" gradientUnits="userSpaceOnUse">
<stop stop-color="#F7FEFE"/>
<stop offset="1" stop-color="#D7FEFF"/>
</linearGradient>
<linearGradient id="paint83_linear_196_1074" x1="149.71" y1="18.4955" x2="149.333" y2="49.299" gradientUnits="userSpaceOnUse">
<stop stop-color="#4FF3FD"/>
<stop offset="0.31" stop-color="#1834F4"/>
<stop offset="0.71" stop-color="#8350FA"/>
<stop offset="1" stop-color="#C836DF"/>
</linearGradient>
</defs>
</svg>
