<svg width="512" height="512" viewBox="0 0 512 512" fill="none" xmlns="http://www.w3.org/2000/svg">
<path fill-rule="evenodd" clip-rule="evenodd" d="M390.976 436.62C376.529 444.046 372.12 454.105 363.089 460.144C346.151 471.473 329.103 457.768 319.461 469.113C307.616 483.048 297.764 512.081 278.973 510.969C270.104 510.444 266.143 487.894 256.162 487.756C243.951 487.588 238.304 506.594 227.553 506.901C212.074 507.341 193.255 487.61 190.053 472.77C188.391 465.072 168.431 473.151 146.959 459.999C137.03 453.916 126.646 441.006 118.171 429.811C111.623 421.163 106.215 413.538 103.036 410.877C29.8677 349.633 37.2854 375.624 19.0002 301.451C17.6902 296.139 9.36231 264.146 17.575 273.637C25.7469 283.08 48.1404 320.138 54.7652 313.051C74.3122 292.142 56.2156 227.272 55.8397 204.408C55.4377 179.962 58.5332 140.426 63.1511 154.05C63.2938 154.47 69.5612 181.693 82.1943 210.764C84.5385 216.158 98.0216 249.729 102.452 231.407C109.366 202.808 78.378 120.329 114.496 14.2095C115.946 9.95169 119.366 -3.56266 121.68 7.77786C125.587 26.9131 129.371 105.854 173.2 176.341C173.543 176.892 178.68 185.154 179.089 181.189C180.36 168.865 178.985 150.21 185.214 158.14C190.373 164.707 198.475 184.251 198.795 164.019C198.804 163.472 197.364 117.385 206.512 138.778C208.05 142.376 224.756 181.445 233.209 177.784C240.646 174.563 250.944 122.666 259.512 138.258C270.483 158.22 274.453 185.15 284.944 174.518C304.139 155.068 309.21 115.183 312.909 143.316C313.738 149.632 311.732 178.473 315.41 174.496C323.511 165.734 329.657 144.636 331.423 162.177C332.136 169.252 331.514 186.787 334.389 182.273C373.543 120.782 379.029 86.0938 389.482 8.74489C389.568 8.11187 390.89 -1.67526 392.664 1.70983C400.849 17.3324 414.513 71.0261 415.453 112.825C417.176 189.469 400.973 218.851 410.749 234.903C420.974 251.691 448.697 153.251 450.76 152.919C455.465 152.163 455.004 187.877 454.997 210.711C454.987 241.855 437.262 286.108 457.062 312.69C467.585 326.818 506.284 238.023 496.635 285.164C478.047 375.976 439.558 411.646 390.976 436.62ZM119.422 365.565C109.941 368.676 116.11 391.982 119.718 397.143C122.797 401.548 141.303 407.45 134.675 394.125C124.572 373.813 129.224 367.795 119.422 365.565ZM359.201 319.106C360.711 316.66 362.647 314.788 364.707 313.356C370.96 309.007 378.346 308.713 378.346 308.713C377.092 305.429 371.085 305.949 367.411 306.607C365.711 306.911 364.51 307.245 364.51 307.245C365.74 306.165 366.989 305.179 368.251 304.28C375.396 299.187 382.919 296.863 389.436 295.923C399.611 294.456 407.334 296.361 407.334 296.361C401.854 292.213 396.445 290.403 391.344 289.956C383.715 289.287 376.776 291.669 371.321 293.835C365.359 296.203 361.171 298.313 359.792 295.907C359.56 295.502 359.408 294.969 359.34 294.288C359.3 293.886 359.276 293.5 359.268 293.132C359.051 283.527 369.264 285.41 369.264 285.41C359.085 276.698 352.224 284.265 345.966 293.738C342.015 299.72 338.304 306.463 334.15 310.348C333.393 311.056 332.621 311.67 331.831 312.166C331.497 312.375 331.162 312.598 330.824 312.833C319.024 321.068 305.079 344.723 305.079 344.723C317.73 330.209 330.699 340.042 339.082 337.284C347.465 334.526 352.845 330.799 358.666 320.033C358.838 319.715 359.016 319.406 359.201 319.106ZM344.157 343.375C344.472 346.941 345.591 352.022 345.737 352.685C347.524 360.798 344.966 368.689 347.462 373.294C352.549 382.676 352.145 382.728 355.95 392.856C357.006 395.666 367.572 387.052 370.256 366.045C368.409 350.376 356.851 343.188 349.827 340.771C348.054 341.766 346.176 342.611 344.157 343.375ZM237.81 483.375C239.46 483.399 240.558 477.918 243.026 473.1C246.383 466.545 246.364 473.773 248.897 480.86C250.099 484.22 250.505 480.73 255.568 473.078C257.793 469.715 257.455 473.658 259.014 477.453C261.19 482.748 263.895 478.5 264.499 475.645C266.79 464.825 272.106 481.31 272.699 482.605C274.114 485.692 276.516 474.257 279.251 471.237C285.66 464.156 278.833 509.978 289.244 490.602C301.149 468.444 299.919 451.214 305.433 459.182C309.225 464.661 312.573 447.276 312.811 446.039C315.306 433.088 308.311 438.167 297.722 441.31C261.1 452.177 262.003 467.667 250.226 459.377C246.63 456.846 221.64 439.255 201.186 438.406C193.9 438.103 203.143 462.913 206.328 459.383C211.861 453.247 209.801 462.528 220.782 487.063C231.069 510.05 227.179 476.915 231.194 470.614C231.803 469.659 232.844 469.995 237.81 483.375ZM392.597 302.985C399.336 316.83 402.119 314.079 403.116 312.887C405.764 309.717 408.24 306.424 410.554 303.06C409.04 303.789 407.281 304.004 405.553 303.578C405.553 303.578 400.1 302.249 392.597 302.985ZM346.696 280.739C334.456 284.937 325.495 296.431 329.632 281.621C330.692 277.825 325.131 273.387 329.717 272.751C331.388 272.519 344.119 270.754 349.559 264.341C352.453 260.929 333.045 244.556 328.022 230.58C323.91 219.141 325.098 216.971 321.553 217.263C313.484 217.927 305.978 253.238 305.146 231.366C304.573 216.313 313.288 210.405 305.103 205.527C298.333 201.491 267.862 248.824 257.108 248.851C245.769 248.88 222.381 209.81 211.717 198.452C208.847 195.395 204.916 199.72 205.003 202.79C205.167 208.551 207.917 229.327 205.733 236.814C203.724 243.693 190.432 201.247 186.39 223.301C183.824 237.299 167.824 254.644 165.764 256.878C160.551 262.529 161.242 263.428 161.725 263.77C175.456 273.507 176.378 270.054 183.25 272.957C187.063 274.569 181.578 277.939 182.398 281.688C183.449 286.494 184.933 289.811 181.038 288.161C176.657 286.306 170.812 282.112 162.029 279.868C162.382 280.194 162.731 280.535 163.076 280.888C166.91 284.806 170.401 290.464 173.823 295.842C174.258 295.996 174.678 296.154 175.079 296.317C193.098 303.659 198.638 320.527 203.884 315.378C207.589 311.74 208.397 307.272 210.548 312.321C211.692 315.009 209.547 322.055 215.29 321.344C233.532 319.084 233.932 323.325 233.017 324.662C232.83 324.935 214.683 331.313 210.16 339.666C210.672 340.487 210.95 340.948 210.95 340.948C211.873 342.515 212.159 344.293 211.874 345.969C216.034 352.741 224.28 361.334 215.237 357.196C214.145 356.697 209.514 353.979 203.832 352.121C202.906 352.031 201.997 351.769 201.157 351.339C191.984 348.99 181.215 349.81 177.988 365.102C174.975 379.38 189.193 403.23 175.599 389.827C168.521 382.849 161.182 407.234 184.137 416.104C217.13 428.852 220.091 418.454 252.629 441.035C260.033 446.174 258.986 433.052 295.548 424.551C319.657 418.946 347.218 416.352 342.104 391.27C340.057 381.226 330.546 397.243 330.648 392.059C330.712 388.854 346.184 342.043 308.97 352.024C300.038 354.419 286.776 364.871 295.659 352.724C296.745 351.24 297.848 349.944 298.836 348.757C297.35 346.457 297.21 343.436 298.676 340.948C298.676 340.948 299.328 339.865 300.475 338.069C299.905 337.376 299.186 336.642 298.303 335.855C286.833 325.642 269.547 323.845 281.405 321.15C293.545 318.392 299.691 328.597 301.555 313.987C302.798 304.253 307.926 320.117 314.635 314.545C315.117 314.144 321.595 303.614 334.83 297.375C335.078 296.984 335.327 296.59 335.578 296.196C339.072 290.713 342.632 284.892 346.55 280.888L346.696 280.739ZM226.852 282.54C228.511 276.614 237.445 290.481 250.257 293.783C272.058 299.401 289.053 269.15 285.344 283.522C276.607 317.387 235.692 322.532 226.852 282.54ZM300.05 387.774C292.253 392.319 282.265 399.167 285.29 392.204C288.189 385.531 312.735 361.694 316.854 368.054C317.661 369.301 323.698 378.624 319.322 387.617C316.559 393.293 314.327 381.691 300.05 387.774ZM191.204 379.518C192.712 369.053 192.963 364.9 201.258 368.342C207.826 371.068 220.729 381.882 225.43 390.476C232.367 403.156 210.16 380.916 198.328 387.111C191.88 390.487 192.228 386.284 191.204 379.518ZM265.622 365.878C256.461 383.261 255.83 384.031 254.92 382.734C253.54 380.768 254.089 380.35 240.155 355.898C236.731 349.888 245.926 355.282 246.374 355.546C254.676 360.415 254.7 362.19 257.556 360.489C271.95 351.921 273.442 352.823 272.939 354.269C272.564 355.344 272.319 356.048 265.622 365.878ZM376.924 316.3C374.319 320.262 373.54 322.68 368.474 329.369C366.182 332.395 368.654 339.455 378.745 342.302C385.998 340.848 390.529 331.516 390.04 329.202C389.526 326.771 387.013 317.503 384.517 312.857C383.195 314.825 381.013 316.046 378.642 316.14C378.642 316.14 377.976 316.15 376.924 316.3ZM120.949 289.842C115.085 289.837 108.738 291.481 102.293 296.361C102.293 296.361 111.159 294.174 122.41 296.292C129.386 297.606 137.277 300.575 144.541 306.747C144.733 306.911 144.925 307.077 145.116 307.245C145.116 307.245 144.965 307.202 144.693 307.134C142.546 306.598 132.909 304.449 131.28 308.713C131.28 308.713 143.1 309.184 149.493 317.736C150.005 318.421 150.482 319.157 150.915 319.949L150.96 320.033C156.781 330.799 162.162 334.526 170.544 337.284C178.927 340.042 191.896 330.209 204.547 344.723C204.547 344.723 189.793 319.696 177.796 312.166C172.612 308.913 168.24 300.637 163.51 293.512C157.292 284.145 150.46 276.768 140.362 285.41C140.362 285.41 151.373 283.379 150.286 294.288C149.87 298.469 146.268 297.065 140.625 294.772C135.476 292.679 128.628 289.847 120.949 289.842ZM437.927 305.074C435.05 293.782 435.844 292.331 433.739 292.533C432.631 292.638 430.408 295.829 430.167 296.174C406.961 329.477 404.431 327.804 403.736 334.574C403.637 335.538 403.585 338.232 413.722 335.934C418.243 334.91 415.336 338.359 413.903 343.689C410.486 356.389 442.035 333.437 446.954 328.99C450.687 325.614 444.398 325.781 437.927 305.074ZM160.586 341.199C155.005 344.289 148.093 350.311 145.576 353.634C134.013 368.895 152.995 393.884 153.53 394.098C155.099 394.724 165.245 373.47 165.784 366.047C165.799 354.974 165.667 355.009 168.177 344.405L168.193 344.335C165.42 343.421 162.911 342.427 160.586 341.199ZM391.014 196.261C392.375 188.444 400.652 140.891 396.751 96.646C394.977 76.5258 393.459 104.082 375.53 144.111C359.805 179.221 340.308 202.715 339.684 203.783C334.93 211.91 346.296 232.778 350.683 237.382C356.349 243.327 380.37 192.031 381.857 190.266C391.28 179.083 365.423 249.518 367.099 252.743C376.875 271.549 390.301 199.722 391.014 196.261ZM411.011 383.082C411.589 386.564 413.3 389.679 429.103 379.148C454.316 362.344 474.968 324.32 467.961 329.404C450.868 341.807 453.01 346.956 415.241 362.749C408.471 365.581 410.909 372.25 411.011 383.082ZM101.694 303.771C104.806 308.459 107.853 312.206 110.668 314.508C111.54 315.221 116.129 309.401 119.423 303.284C110.714 301.96 104.073 303.578 104.073 303.578C103.278 303.774 102.475 303.834 101.694 303.771ZM165.336 440.382C168.402 436.479 168.815 436.956 170.362 433.206C171.826 429.662 155.719 413.298 149.395 422.006C143.621 429.954 144.717 433.224 149.349 440.39C156.986 452.207 159.353 446.501 165.336 440.382ZM84.5608 342.568C85.8975 343.234 100.745 352.858 98.3693 344.603C96.6663 338.684 94.9707 334.787 100.141 336.232C102.012 336.754 112.382 342.988 106.563 332.113C104.89 328.987 104.244 329.671 81.9349 296.351C75.8562 287.273 76.3681 297.64 73.0721 308.469C68.7053 322.815 59.4842 325.036 69.0426 332.549C72.1039 334.956 72.0385 334.702 84.5608 342.568ZM126.534 314.433C116.752 335.196 129.19 342.477 134.391 342.215C135.247 341.695 142.625 337.2 144.516 334.502C145.519 333.072 138.343 321.902 134.925 316.743C132.675 316.166 130.984 316.14 130.984 316.14C129.334 316.075 127.775 315.463 126.534 314.433ZM113.896 283.022C110.204 279.642 107.685 277.483 101.477 270.107C71.1714 231.073 75.7039 225.532 71.9352 224.786C66.1626 223.643 80.3099 265.672 95.4819 293.385C95.9775 292.249 96.7621 291.226 97.8053 290.436C103.284 286.288 108.7 284.028 113.896 283.022ZM101.254 378.606C101.207 367.695 102.585 365.322 94.1905 361.48C44.4438 338.708 48.1753 328.58 43.6012 328.951C37.7595 329.425 65.5541 374.458 97.1091 386.812C101.35 388.473 101.153 379.335 101.254 378.606ZM392.113 365.653C385.197 367.48 387.118 373.609 380.642 387.365C379.604 389.57 371.864 400.644 378.019 401.82C399.018 405.834 402.156 368.429 392.113 365.653ZM347.355 440.816C351.772 445.38 353.841 450.225 357.824 445.802C367.604 434.941 371.19 430.96 360.86 420.892C359.534 419.6 355.578 415.745 340.927 429.922C338.309 432.455 347.054 440.46 347.355 440.816ZM119.825 190.128C120.799 195.634 133.896 269.645 144.663 253.787C147.269 249.949 121.958 185.376 129.703 190.375C133.536 192.849 154.869 245.273 162.347 237.403C162.48 237.262 177.053 215.458 172.253 204.377C167.257 192.841 139.649 169.822 119.214 94.9741C113.302 73.3221 112.515 140.456 118.258 180.122C118.985 185.142 119.048 184.947 119.825 190.128ZM414.764 296.585C431.897 268.713 438.693 238.251 440.014 232.331C442.865 215.885 427.025 246.708 426.711 247.242C415.268 266.688 405.143 277.198 398.255 283.607C402.67 284.803 407.223 286.955 411.82 290.436C413.788 291.926 414.833 294.239 414.764 296.585Z" fill="#16141C"/>
</svg>
