<svg width="131" height="38" viewBox="0 0 131 38" fill="none" xmlns="http://www.w3.org/2000/svg">
<path d="M117.371 0.640625L121.465 11L120.574 1.53125L130.293 1.92188L130.559 36.9844L124.793 37.375L118.902 20.7344L119.027 34.4375L111.605 34.5625L110.715 4.60938L108.027 3.96875L107.902 0L117.371 0.640625Z" fill="#F8F8F8"/>
<path d="M108.247 13.1562C108.987 13.5521 109.586 14.0885 110.044 14.7656C110.513 15.4323 110.851 16.1875 111.06 17.0312C111.278 17.8646 111.388 18.7344 111.388 19.6406C111.388 20.3906 111.325 21.1146 111.2 21.8125C111.086 22.5104 110.924 23.151 110.716 23.7344C110.507 24.3177 110.263 24.8125 109.981 25.2188C109.325 26.1979 108.622 27.0417 107.872 27.75C107.122 28.4583 106.356 29.0312 105.575 29.4688C104.794 29.8958 104.018 30.2083 103.247 30.4062C102.487 30.6146 101.731 30.7188 100.981 30.7188C100.096 30.7188 99.2523 30.5781 98.4502 30.2969C97.6585 30.026 96.9814 29.6667 96.4189 29.2188C95.4919 28.4479 94.7679 27.4115 94.2471 26.1094C93.7262 24.7969 93.4658 23.4115 93.4658 21.9531C93.4658 19.4427 94.1898 17.4167 95.6377 15.875C96.8773 14.5521 98.1585 13.5573 99.4814 12.8906C100.804 12.2135 102.159 11.875 103.544 11.875C104.356 11.875 105.138 11.9792 105.888 12.1875C106.638 12.3854 107.424 12.7083 108.247 13.1562ZM107.325 15.7812C107.148 16.5729 106.763 17.2708 106.169 17.875C105.586 18.4792 105.013 18.7812 104.45 18.7812C104.169 18.7812 103.919 18.7083 103.7 18.5625C103.388 18.3125 103.231 17.875 103.231 17.25C103.231 16.7708 103.388 16.2969 103.7 15.8281C104.023 15.3594 104.528 14.9896 105.216 14.7188C104.528 14.7188 103.862 14.849 103.216 15.1094C102.58 15.3698 102.034 15.7083 101.575 16.125C101.117 16.5312 100.747 16.9948 100.466 17.5156C100.195 18.026 100.06 18.5417 100.06 19.0625C100.06 20.0312 100.507 20.8021 101.403 21.375C102.237 21.9062 103.028 22.1719 103.778 22.1719C104.518 22.1719 105.174 21.9271 105.747 21.4375C106.32 20.9375 106.757 20.3021 107.06 19.5312C107.362 18.75 107.513 17.9792 107.513 17.2188C107.513 16.6979 107.45 16.2188 107.325 15.7812Z" fill="#F8F8F8"/>
<path d="M73.3257 6.78125L81.0132 6.26562L83.0601 9.59375L84.8569 4.98438L89.8413 4.85938L95.7319 32.25L86.6382 31.3594L84.9819 22.0156L83.1851 25.4688L80.7632 21.125L79.9819 29.0469L71.1538 29.6875L73.3257 6.78125Z" fill="#F8F8F8"/>
<path d="M68.7949 21.4375L72.5605 25.9844C72.2585 26.8594 71.5397 27.6615 70.4043 28.3906C69.2793 29.1198 67.9355 29.6927 66.373 30.1094C64.821 30.5365 63.2689 30.75 61.7168 30.75C60.3418 30.75 59.1126 30.5677 58.0293 30.2031C56.9564 29.8385 56.1283 29.2865 55.5449 28.5469C54.5345 27.276 54.0293 25.651 54.0293 23.6719C54.0293 22.1094 54.3105 20.5729 54.873 19.0625C55.446 17.5417 56.0501 16.4792 56.6855 15.875C57.446 15.1562 58.2689 14.5573 59.1543 14.0781C60.0501 13.599 60.9772 13.2396 61.9355 13C62.8939 12.7604 63.8783 12.6406 64.8887 12.6406C66.2116 12.6406 67.4668 12.8542 68.6543 13.2812C69.8522 13.6979 70.8991 14.3073 71.7949 15.1094L63.2168 25.3438C63.9772 25.3438 64.696 25.1875 65.373 24.875C66.0605 24.5521 66.6908 24.099 67.2637 23.5156C67.8366 22.9219 68.347 22.2292 68.7949 21.4375ZM64.4668 17.7969C63.9564 17.5365 63.4355 17.4062 62.9043 17.4062C62.3418 17.4062 61.7949 17.5208 61.2637 17.75C60.7428 17.9792 60.373 18.25 60.1543 18.5625C59.5085 19.3958 59.1855 20.3125 59.1855 21.3125C59.1855 21.6771 59.222 22.026 59.2949 22.3594C59.3678 22.6927 59.4928 23.151 59.6699 23.7344L64.4668 17.7969ZM56.4355 6.53125L64.7637 1.92188L68.3418 7.42188L58.2324 9.34375L56.4355 6.53125Z" fill="#F8F8F8"/>
<path d="M34.8738 3.96875L42.8113 0.640625V5.76562L47.03 1.28125L52.405 5.76562L44.7332 16.8906L60.7332 29.1875L61.1082 35.4531L44.8582 26.625L45.2488 34.2969L37.8113 34.4375L36.405 7.29688L34.1082 7.8125L34.8738 3.96875Z" fill="#F8F8F8"/>
<path d="M33.6868 13.1562C34.4264 13.5521 35.0253 14.0885 35.4836 14.7656C35.9524 15.4323 36.2909 16.1875 36.4993 17.0312C36.718 17.8646 36.8274 18.7344 36.8274 19.6406C36.8274 20.3906 36.7649 21.1146 36.6399 21.8125C36.5253 22.5104 36.3639 23.151 36.1555 23.7344C35.9472 24.3177 35.7024 24.8125 35.4211 25.2188C34.7649 26.1979 34.0618 27.0417 33.3118 27.75C32.5618 28.4583 31.7961 29.0312 31.0149 29.4688C30.2336 29.8958 29.4576 30.2083 28.6868 30.4062C27.9264 30.6146 27.1711 30.7188 26.4211 30.7188C25.5357 30.7188 24.692 30.5781 23.8899 30.2969C23.0982 30.026 22.4211 29.6667 21.8586 29.2188C20.9316 28.4479 20.2076 27.4115 19.6868 26.1094C19.1659 24.7969 18.9055 23.4115 18.9055 21.9531C18.9055 19.4427 19.6295 17.4167 21.0774 15.875C22.317 14.5521 23.5982 13.5573 24.9211 12.8906C26.2441 12.2135 27.5982 11.875 28.9836 11.875C29.7961 11.875 30.5774 11.9792 31.3274 12.1875C32.0774 12.3854 32.8639 12.7083 33.6868 13.1562ZM32.7649 15.7812C32.5878 16.5729 32.2024 17.2708 31.6086 17.875C31.0253 18.4792 30.4524 18.7812 29.8899 18.7812C29.6086 18.7812 29.3586 18.7083 29.1399 18.5625C28.8274 18.3125 28.6711 17.875 28.6711 17.25C28.6711 16.7708 28.8274 16.2969 29.1399 15.8281C29.4628 15.3594 29.968 14.9896 30.6555 14.7188C29.968 14.7188 29.3014 14.849 28.6555 15.1094C28.0201 15.3698 27.4732 15.7083 27.0149 16.125C26.5566 16.5312 26.1868 16.9948 25.9055 17.5156C25.6347 18.026 25.4993 18.5417 25.4993 19.0625C25.4993 20.0312 25.9472 20.8021 26.843 21.375C27.6764 21.9062 28.468 22.1719 29.218 22.1719C29.9576 22.1719 30.6139 21.9271 31.1868 21.4375C31.7597 20.9375 32.1972 20.3021 32.4993 19.5312C32.8014 18.75 32.9524 17.9792 32.9524 17.2188C32.9524 16.6979 32.8899 16.2188 32.7649 15.7812Z" fill="#F8F8F8"/>
<path d="M0 5.25C1.26042 4.83333 2.44271 4.44792 3.54688 4.09375C4.66146 3.73958 5.83333 3.40625 7.0625 3.09375C8.29167 2.77083 9.46875 2.51562 10.5938 2.32812C11.4583 2.18229 12.3438 2.10938 13.25 2.10938C14.7604 2.10938 15.75 2.15104 16.2188 2.23438C16.9271 2.36979 17.5938 2.58854 18.2188 2.89062C18.8542 3.19271 19.4167 3.59896 19.9062 4.10938C20.4062 4.60938 20.8125 5.20312 21.125 5.89062C21.25 6.17188 21.3125 6.46875 21.3125 6.78125C21.3125 7.94792 20.6719 9.38542 19.3906 11.0938C18.1198 12.8021 16.8385 14.2917 15.5469 15.5625C14.2656 16.8333 13.3073 17.7448 12.6719 18.2969L15.4844 28.1562L11.3906 31.1094L4.21875 10.625C4.19792 10.625 4.09896 10.724 3.92188 10.9219C3.74479 11.1198 3.51042 11.3802 3.21875 11.7031C2.9375 12.0156 2.76042 12.2083 2.6875 12.2812C2.65625 12.2812 2.55208 12.0573 2.375 11.6094C2.20833 11.1615 1.97917 10.5417 1.6875 9.75C1.40625 8.94792 1.08854 8.0625 0.734375 7.09375C0.369792 6.11458 0.125 5.5 0 5.25ZM10.1094 9.59375L11.3906 14.2031C12.0365 13.5469 12.8385 12.651 13.7969 11.5156C14.7552 10.3802 15.2344 9.55729 15.2344 9.04688C15.2344 8.84896 15.151 8.73438 14.9844 8.70312C14.5156 8.59896 14.0521 8.54688 13.5938 8.54688C12.2188 8.54688 11.0573 8.89583 10.1094 9.59375Z" fill="#F8F8F8"/>
</svg>
